<svg width="25" height="29" viewBox="0 0 25 29" fill="none" xmlns="http://www.w3.org/2000/svg">
<path d="M17.8318 0C18.2241 0.188652 18.6525 0.327659 19.0011 0.578013C19.5466 0.969502 19.7992 1.56028 19.8556 2.23049C19.8648 2.34326 19.8634 2.45673 19.8634 2.57021C19.8634 7.04467 19.8648 11.5184 19.8599 15.9929C19.8599 16.1574 19.8366 16.3361 19.7696 16.4829C19.6524 16.739 19.4068 16.7744 19.1493 16.7766C18.0689 16.7851 17.0316 16.9844 16.038 17.4354C13.6683 18.5106 12.1808 21.0829 12.4511 23.6794C12.4772 23.9326 12.5195 24.1844 12.5343 24.4375C12.5576 24.8297 12.3198 25.0922 11.9331 25.0929C8.96435 25.0957 5.9963 25.1063 3.02755 25.0879C1.65291 25.0794 0.655091 24.029 0.652268 22.6C0.6438 17.3886 0.649445 12.178 0.650857 6.96736C0.650857 6.58935 0.770115 6.478 1.17235 6.478C2.75022 6.47658 4.32951 6.45034 5.90668 6.48722C6.90097 6.51063 7.14725 6.07233 7.13243 5.239C7.1035 3.66311 7.11902 2.08652 7.13172 0.509928C7.13314 0.339716 7.23687 0.170212 7.29332 0C10.8069 0 14.3197 0 17.8332 0L17.8318 0ZM10.2769 15.1191C9.24379 15.1191 8.21069 15.1191 7.17759 15.1191C6.42605 15.1191 5.67452 15.1149 4.92298 15.1213C4.46641 15.1248 4.11146 15.4439 4.07547 15.8652C4.03454 16.3425 4.31046 16.7078 4.78608 16.7936C4.90534 16.8149 5.02883 16.8156 5.1502 16.8156C7.68638 16.817 10.2226 16.8163 12.7587 16.8163C13.6698 16.8163 14.5808 16.8156 15.4918 16.8163C15.8291 16.8163 16.1255 16.7255 16.3202 16.4269C16.4995 16.1517 16.5171 15.8574 16.3612 15.5695C16.1946 15.2617 15.9237 15.1184 15.5744 15.1184C13.8088 15.1198 12.0425 15.1184 10.2769 15.1184V15.1191ZM10.2663 13.3865C11.9663 13.3865 13.6655 13.3865 15.3655 13.3865C15.4967 13.3865 15.6294 13.3872 15.7592 13.3709C16.2024 13.3156 16.5263 12.8744 16.4529 12.434C16.3746 11.9603 16.0535 11.7113 15.5024 11.7113C12.0093 11.7099 8.51625 11.7106 5.02248 11.7113C4.95685 11.7113 4.89122 11.7127 4.8256 11.7177C4.43818 11.7482 4.11358 12.0603 4.07618 12.4369C4.03384 12.8603 4.2787 13.256 4.66329 13.3532C4.80654 13.3893 4.96179 13.3858 5.11139 13.3858C6.8297 13.3879 8.548 13.3872 10.2663 13.3872V13.3865ZM10.2663 8.42764C8.48238 8.42764 6.69844 8.42481 4.91381 8.42977C4.48052 8.43119 4.13404 8.72835 4.07759 9.11984C4.01831 9.52835 4.23001 9.91913 4.60896 10.0418C4.77338 10.095 4.95897 10.0993 5.13539 10.0993C8.55365 10.1021 11.9712 10.1014 15.3895 10.1014C15.5017 10.1014 15.6294 10.1269 15.724 10.0837C15.9286 9.98934 16.1579 9.89573 16.3019 9.73403C16.5171 9.49218 16.5185 9.17942 16.3689 8.8858C16.208 8.5702 15.942 8.42694 15.5906 8.42694C13.8158 8.42835 12.0411 8.42764 10.2663 8.42835V8.42764ZM7.05763 20.2014C7.05763 20.1936 7.05763 20.1858 7.05763 20.178C7.81764 20.178 8.57905 20.2028 9.33765 20.1688C9.77657 20.1489 10.0793 19.7347 10.0539 19.3056C10.0278 18.8709 9.68484 18.5212 9.24591 18.5191C7.79011 18.512 6.33432 18.512 4.87852 18.5191C4.41419 18.5212 4.07124 18.8929 4.07265 19.3581C4.07406 19.8595 4.42901 20.1915 5.0006 20.2C5.68581 20.2099 6.37172 20.2021 7.05763 20.2021V20.2014Z" fill="#6B7A91"/>
<path d="M19.0146 17.9499C22.0447 17.9478 24.5152 20.4187 24.5287 23.4634C24.5421 26.5024 22.0475 29.0017 19.0047 28.9974C15.9788 28.9939 13.4962 26.4967 13.5054 23.4669C13.5153 20.4216 15.9816 17.9506 19.0146 17.9492V17.9499ZM19.8614 22.3833C19.8614 22.0442 19.8663 21.7052 19.8599 21.3662C19.8501 20.8492 19.5106 20.4903 19.0329 20.4833C18.5516 20.4755 18.184 20.823 18.1741 21.3336C18.16 22.04 18.16 22.7464 18.1741 23.4528C18.184 23.9648 18.5467 24.3109 19.0294 24.3067C19.5085 24.3024 19.8501 23.9464 19.8607 23.4286C19.8677 23.0804 19.8621 22.7315 19.8621 22.3833H19.8614ZM19.0075 26.5662C19.4725 26.5698 19.8536 26.1996 19.8614 25.7364C19.8684 25.2811 19.4859 24.8896 19.0273 24.8825C18.5735 24.8754 18.1783 25.2613 18.172 25.7166C18.1656 26.1733 18.5481 26.562 19.0082 26.5662H19.0075Z" fill="#6B7A91"/>
<path d="M5.43186 2.88305C5.43186 3.37312 5.43327 3.86319 5.43186 4.35397C5.43045 4.66957 5.32319 4.79794 5.02116 4.80007C4.0177 4.80716 3.01353 4.81142 2.01007 4.79227C1.88235 4.79014 1.70099 4.66957 1.64947 4.55539C1.60713 4.46319 1.68476 4.26177 1.77226 4.1717C2.77784 3.14263 3.79259 2.12206 4.81793 1.11284C4.91108 1.02065 5.12701 0.955397 5.23075 1.0015C5.33377 1.0476 5.41704 1.2483 5.42339 1.38518C5.44598 1.88376 5.43257 2.38376 5.43257 2.88376L5.43186 2.88305Z" fill="#6B7A91"/>
</svg>
