<svg width="34" height="18" viewBox="0 0 34 18" fill="none" xmlns="http://www.w3.org/2000/svg">
<path d="M17 10.0625C14.6908 10.0625 12.6508 10.615 10.9933 11.3375C9.46334 12.0175 8.5 13.5475 8.5 15.205V17.5H25.5V15.2192C25.5 13.5475 24.5367 12.0175 23.0067 11.3517C21.3492 10.615 19.3092 10.0625 17 10.0625ZM28.3333 10.4167C26.775 10.4167 25.5 9.14167 25.5 7.58333C25.5 6.025 26.775 4.75 28.3333 4.75C29.8917 4.75 31.1667 6.025 31.1667 7.58333C31.1667 9.14167 29.8917 10.4167 28.3333 10.4167ZM26.7325 11.975C27.2567 11.89 27.7808 11.8333 28.3333 11.8333C29.7358 11.8333 31.0675 12.1308 32.2717 12.655C33.32 13.1083 34 14.1283 34 15.2758V17.5H27.625V15.2192C27.625 14.0433 27.2992 12.9383 26.7325 11.975ZM5.66667 10.4167C4.10833 10.4167 2.83333 9.14167 2.83333 7.58333C2.83333 6.025 4.10833 4.75 5.66667 4.75C7.225 4.75 8.5 6.025 8.5 7.58333C8.5 9.14167 7.225 10.4167 5.66667 10.4167ZM0 15.2758C0 14.1283 0.68 13.1083 1.72833 12.655C2.9325 12.1308 4.26417 11.8333 5.66667 11.8333C6.21917 11.8333 6.74333 11.89 7.2675 11.975C6.70083 12.9383 6.375 14.0433 6.375 15.2192V17.5H0V15.2758ZM17 0.5C14.6483 0.5 12.75 2.39833 12.75 4.75C12.75 7.10167 14.6483 9 17 9C19.3517 9 21.25 7.10167 21.25 4.75C21.25 2.39833 19.3517 0.5 17 0.5Z" fill="#6B7A91"/>
</svg>
