<svg width="17" height="25" viewBox="0 0 17 25" fill="none" xmlns="http://www.w3.org/2000/svg">
<g clip-path="url(#clip0_584_252)">
<path d="M6.50983 11.8079C6.43704 11.919 6.39716 12.0069 6.33322 12.0711C6.07812 12.3272 6.00026 12.6449 6.00596 12.9934C6.03001 14.5542 6.02432 16.1157 6.27815 17.6644C6.46869 18.8247 6.58896 19.9973 6.80291 21.1525C6.89913 21.6705 7.10992 22.1781 7.3435 22.6524C7.4682 22.9059 7.7233 23.1312 7.97207 23.2769C8.66395 23.6812 9.37608 23.4938 9.85147 22.8405C10.199 22.363 10.3522 21.8123 10.4636 21.2424C10.9345 18.8389 11.1301 16.4071 11.1839 13.9612C11.1909 13.6493 11.2067 13.3367 11.2105 13.0248C11.215 12.6545 11.1428 12.3098 10.8769 12.0287C10.8149 11.9633 10.7801 11.8715 10.6972 11.7322C10.9808 11.7104 11.2124 11.6751 11.4435 11.6783C12.493 11.6931 13.5476 11.661 14.5914 11.754C15.9574 11.876 16.9424 12.9914 16.9797 14.3841C17.0114 15.5689 16.9949 16.7549 16.9962 17.9403C16.9975 19.2297 17.0076 20.5197 16.9854 21.8091C16.9772 22.2949 16.9076 22.7821 16.831 23.2628C16.762 23.6966 16.5316 24.0509 16.1815 24.3179C15.9163 24.5201 15.6542 24.7267 15.3808 24.9167C15.3035 24.9706 15.1915 24.9956 15.0953 24.9956C11.6505 24.9995 8.20565 25.0021 4.76084 24.9976C3.97148 24.9963 3.18149 24.9693 2.39213 24.9494C2.24274 24.9456 2.09398 24.9148 1.94459 24.9C1.32361 24.8378 0.836834 24.5599 0.508937 24.0079C0.37917 23.7891 0.217121 23.5895 0.0816577 23.3732C0.0348153 23.2968 0 23.1967 0 23.1075C0.00253202 20.1757 0.0101281 17.2446 0.0158251 14.3129C0.0177242 13.537 0.248771 12.8611 0.862787 12.3618C1.32741 11.9838 1.87623 11.8227 2.46049 11.7553C2.94538 11.6995 3.42899 11.6295 3.91324 11.5666C3.95185 11.5615 3.99237 11.5615 4.03161 11.5647C4.7697 11.6295 5.50842 11.6944 6.2465 11.7617C6.3212 11.7688 6.39526 11.7874 6.50983 11.8073V11.8079Z" fill="#6B7A91"/>
<path d="M8.62602 4.70987C10.1269 4.70987 11.6284 4.71051 13.1292 4.70859C13.2653 4.70859 13.3596 4.71693 13.409 4.88508C13.9958 6.88878 13.554 8.65437 12.1348 10.1324C11.1694 11.1381 9.91798 11.5444 8.54246 11.5412C8.0848 11.5399 7.6265 11.5027 7.17074 11.461C7.0511 11.45 6.93463 11.3666 6.82322 11.3056C6.69155 11.2338 6.56812 11.1478 6.43899 11.0707C5.04701 10.2415 4.01078 9.13379 3.70503 7.46126C3.55248 6.62564 3.52906 5.79387 3.78353 4.96595C3.84809 4.75608 3.93861 4.70089 4.14624 4.70217C5.6395 4.71116 7.13276 4.7073 8.62602 4.7073V4.70987Z" fill="#6B7A91"/>
<path d="M8.38415 4.14689C7.01876 4.11544 5.65336 4.06346 4.28797 4.06282C3.67332 4.06282 3.25997 3.84717 3.04348 3.258C2.89536 2.85431 2.72761 2.45832 2.58708 2.0527C2.50226 1.80818 2.60924 1.61243 2.8156 1.47701C2.99411 1.35956 3.17198 1.23505 3.36568 1.14776C4.02844 0.848044 4.69689 0.559876 5.36598 0.274917C5.83061 0.0766015 6.32245 -0.00490698 6.82379 0.000227417C8.06322 0.0130634 9.30264 0.0348846 10.5414 0.0624819C11.0124 0.0727507 11.458 0.194051 11.8872 0.40071C12.1771 0.540622 12.4993 0.613146 12.788 0.756267C13.2893 1.00528 13.778 1.28062 14.2667 1.55531C14.4287 1.64644 14.4724 1.79726 14.4256 1.98852C14.2755 2.60144 14.0179 3.1643 13.6894 3.69699C13.5621 3.90365 13.3779 4.01468 13.1431 4.02944C12.631 4.06217 12.1189 4.10389 11.6068 4.10967C10.5332 4.12186 9.459 4.11352 8.38478 4.11352V4.14625L8.38415 4.14689Z" fill="#6B7A91"/>
<path d="M7.51882 16.1034C7.51882 15.855 7.49033 15.6028 7.52768 15.3608C7.55807 15.1644 7.64352 14.9661 7.74797 14.7954C7.83659 14.6503 7.86064 14.5412 7.7562 14.4071C7.65365 14.2749 7.5492 14.1433 7.45742 14.004C7.20422 13.6177 7.17383 13.2005 7.45045 12.8366C7.71189 12.4926 8.04168 12.1987 8.35692 11.9002C8.41009 11.8502 8.55378 11.8559 8.63544 11.888C8.86332 11.9766 9.08677 12.0819 9.302 12.1993C10.0084 12.5844 10.2148 13.2653 9.85145 13.9899C9.816 14.0612 9.78308 14.1375 9.73181 14.1966C9.48747 14.4751 9.43556 14.7389 9.66914 15.0752C9.77422 15.226 9.77675 15.4757 9.76979 15.6785C9.71598 17.2246 9.56406 18.7623 9.29124 20.2847C9.20705 20.7551 9.07791 21.2192 8.93549 21.6755C8.89181 21.8147 8.75002 22.0009 8.62974 22.0208C8.42275 22.0548 8.32464 21.8359 8.28666 21.6575C8.12524 20.8912 7.95116 20.1255 7.83849 19.3515C7.68277 18.2752 7.57832 17.1912 7.45235 16.1104C7.47451 16.1085 7.49603 16.1066 7.51819 16.1047L7.51882 16.1034Z" fill="#6B7A91"/>
</g>
<defs>
<clipPath id="clip0_584_252">
<rect width="17" height="25" fill="white"/>
</clipPath>
</defs>
</svg>
