<svg width="421" height="181" viewBox="0 0 421 181" fill="none" xmlns="http://www.w3.org/2000/svg">
<circle cx="306.5" cy="90.5" r="90.5" fill="#A03BCC"/>
<path d="M38.96 79.2C42.2133 79.8933 44.8267 81.52 46.8 84.08C48.7733 86.5867 49.76 89.4667 49.76 92.72C49.76 97.4133 48.1067 101.147 44.8 103.92C41.5467 106.64 36.9867 108 31.12 108H4.96V51.84H30.24C35.9467 51.84 40.4 53.1467 43.6 55.76C46.8533 58.3733 48.48 61.92 48.48 66.4C48.48 69.7067 47.6 72.4533 45.84 74.64C44.1333 76.8267 41.84 78.3467 38.96 79.2ZM18.64 74.56H27.6C29.84 74.56 31.5467 74.08 32.72 73.12C33.9467 72.1067 34.56 70.64 34.56 68.72C34.56 66.8 33.9467 65.3333 32.72 64.32C31.5467 63.3067 29.84 62.8 27.6 62.8H18.64V74.56ZM28.72 96.96C31.0133 96.96 32.7733 96.4533 34 95.44C35.28 94.3733 35.92 92.8533 35.92 90.88C35.92 88.9067 35.2533 87.36 33.92 86.24C32.64 85.12 30.8533 84.56 28.56 84.56H18.64V96.96H28.72ZM99.4744 84.96C99.4744 86.24 99.3944 87.5733 99.2344 88.96H68.2744C68.4877 91.7333 69.3677 93.8667 70.9144 95.36C72.5144 96.8 74.461 97.52 76.7544 97.52C80.1677 97.52 82.541 96.08 83.8744 93.2H98.4344C97.6877 96.1333 96.3277 98.7733 94.3544 101.12C92.4344 103.467 90.0077 105.307 87.0744 106.64C84.141 107.973 80.861 108.64 77.2344 108.64C72.861 108.64 68.9677 107.707 65.5544 105.84C62.141 103.973 59.4744 101.307 57.5544 97.84C55.6344 94.3733 54.6744 90.32 54.6744 85.68C54.6744 81.04 55.6077 76.9867 57.4744 73.52C59.3944 70.0533 62.061 67.3867 65.4744 65.52C68.8877 63.6533 72.8077 62.72 77.2344 62.72C81.5544 62.72 85.3944 63.6267 88.7544 65.44C92.1144 67.2533 94.7277 69.84 96.5944 73.2C98.5144 76.56 99.4744 80.48 99.4744 84.96ZM85.4744 81.36C85.4744 79.0133 84.6744 77.1467 83.0744 75.76C81.4744 74.3733 79.4744 73.68 77.0744 73.68C74.781 73.68 72.8344 74.3467 71.2344 75.68C69.6877 77.0133 68.7277 78.9067 68.3544 81.36H85.4744ZM148.471 84.96C148.471 86.24 148.391 87.5733 148.231 88.96H117.271C117.485 91.7333 118.365 93.8667 119.911 95.36C121.511 96.8 123.458 97.52 125.751 97.52C129.165 97.52 131.538 96.08 132.871 93.2H147.431C146.685 96.1333 145.325 98.7733 143.351 101.12C141.431 103.467 139.005 105.307 136.071 106.64C133.138 107.973 129.858 108.64 126.231 108.64C121.858 108.64 117.965 107.707 114.551 105.84C111.138 103.973 108.471 101.307 106.551 97.84C104.631 94.3733 103.671 90.32 103.671 85.68C103.671 81.04 104.605 76.9867 106.471 73.52C108.391 70.0533 111.058 67.3867 114.471 65.52C117.885 63.6533 121.805 62.72 126.231 62.72C130.551 62.72 134.391 63.6267 137.751 65.44C141.111 67.2533 143.725 69.84 145.591 73.2C147.511 76.56 148.471 80.48 148.471 84.96ZM134.471 81.36C134.471 79.0133 133.671 77.1467 132.071 75.76C130.471 74.3733 128.471 73.68 126.071 73.68C123.778 73.68 121.831 74.3467 120.231 75.68C118.685 77.0133 117.725 78.9067 117.351 81.36H134.471ZM212.348 62.88C217.895 62.88 222.295 64.56 225.548 67.92C228.855 71.28 230.508 75.9467 230.508 81.92V108H216.908V83.76C216.908 80.88 216.135 78.6667 214.588 77.12C213.095 75.52 211.015 74.72 208.348 74.72C205.681 74.72 203.575 75.52 202.028 77.12C200.535 78.6667 199.788 80.88 199.788 83.76V108H186.188V83.76C186.188 80.88 185.415 78.6667 183.868 77.12C182.375 75.52 180.295 74.72 177.628 74.72C174.961 74.72 172.855 75.52 171.308 77.12C169.815 78.6667 169.068 80.88 169.068 83.76V108H155.388V63.36H169.068V68.96C170.455 67.0933 172.268 65.6267 174.508 64.56C176.748 63.44 179.281 62.88 182.108 62.88C185.468 62.88 188.455 63.6 191.068 65.04C193.735 66.48 195.815 68.5333 197.308 71.2C198.855 68.7467 200.961 66.7467 203.628 65.2C206.295 63.6533 209.201 62.88 212.348 62.88ZM294.964 95.6H270.644L266.164 108H258.484L278.644 52.56H287.044L307.124 108H299.444L294.964 95.6ZM292.884 89.68L282.804 61.52L272.724 89.68H292.884ZM352.89 68.56C352.89 73.2 351.29 77.0667 348.09 80.16C344.943 83.2 340.117 84.72 333.61 84.72H322.89V108H315.61V52.24H333.61C339.903 52.24 344.677 53.76 347.93 56.8C351.237 59.84 352.89 63.76 352.89 68.56ZM333.61 78.72C337.663 78.72 340.65 77.84 342.57 76.08C344.49 74.32 345.45 71.8133 345.45 68.56C345.45 61.68 341.503 58.24 333.61 58.24H322.89V78.72H333.61ZM398.918 68.56C398.918 73.2 397.318 77.0667 394.118 80.16C390.971 83.2 386.145 84.72 379.638 84.72H368.918V108H361.638V52.24H379.638C385.931 52.24 390.705 53.76 393.958 56.8C397.265 59.84 398.918 63.76 398.918 68.56ZM379.638 78.72C383.691 78.72 386.678 77.84 388.598 76.08C390.518 74.32 391.478 71.8133 391.478 68.56C391.478 61.68 387.531 58.24 379.638 58.24H368.918V78.72H379.638Z" fill="white"/>
<g clip-path="url(#clip0_385_1003)">
<path d="M110.6 155H77.8V150H110.6V155Z" fill="#FAC100"/>
<path d="M77.8 155H45V150H77.8V155Z" fill="#F14668"/>
<path d="M143.4 155H110.6V150H143.4V155Z" fill="#66CFC7"/>
<path d="M176.2 155H143.4V150H176.2V155Z" fill="#A03BCC"/>
<path d="M209 155H176.2V150H209V155Z" fill="#431879"/>
</g>
<defs>
<clipPath id="clip0_385_1003">
<rect width="164" height="5" fill="white" transform="matrix(1 0 0 -1 45 155)"/>
</clipPath>
</defs>
</svg>
