<?xml version="1.0" encoding="UTF-8" standalone="no"?>
<!-- Created with Inkscape (http://www.inkscape.org/) -->

<svg
   version="1.1"
   id="svg2"
   width="1889.76"
   height="1889.76"
   viewBox="0 0 1889.76 1889.76"
   sodipodi:docname="opelai.ai"
   xmlns:inkscape="http://www.inkscape.org/namespaces/inkscape"
   xmlns:sodipodi="http://sodipodi.sourceforge.net/DTD/sodipodi-0.dtd"
   xmlns="http://www.w3.org/2000/svg"
   xmlns:svg="http://www.w3.org/2000/svg">
  <defs
     id="defs6">
    <clipPath
       clipPathUnits="userSpaceOnUse"
       id="clipPath16">
      <path
         d="M 0,1417.323 H 1417.323 V 0 H 0 Z"
         id="path14" />
    </clipPath>
  </defs>
  <sodipodi:namedview
     id="namedview4"
     pagecolor="#ffffff"
     bordercolor="#000000"
     borderopacity="0.25"
     inkscape:showpageshadow="2"
     inkscape:pageopacity="0.0"
     inkscape:pagecheckerboard="0"
     inkscape:deskcolor="#d1d1d1" />
  <g
     id="g8"
     inkscape:groupmode="layer"
     inkscape:label="opelai"
     transform="matrix(1.3333333,0,0,-1.3333333,0,1889.76)">
    <g
       id="g10">
      <g
         id="g12"
         clip-path="url(#clipPath16)">
        <g
           id="g18"
           transform="translate(707.8829,566.2267)">
          <path
             d="m 0,0 c 122.401,0 225.66,85.766 251.476,200.683 h 57.458 c 3.331,0 4.993,0.829 7.49,4.163 l 13.325,17.484 c 2.5,3.33 2.5,4.164 2.5,4.998 0,3.33 -2.5,4.997 -4.997,4.997 l -69.954,4.993 c 0.838,6.664 0.838,13.325 0.838,20.818 0,142.396 -115.75,258.141 -258.136,258.141 -122.406,0 -225.66,-85.77 -251.476,-200.683 h -57.459 c -3.329,0 -4.992,-0.833 -7.493,-4.163 l -13.321,-17.489 c -2.5,-3.33 -2.5,-4.163 -2.5,-4.992 0,-3.335 2.5,-4.998 4.997,-4.998 l 69.949,-4.997 c -0.833,-6.66 -0.833,-14.154 -0.833,-20.819 C -258.136,115.746 -142.391,0 0,0 m 36.64,250.643 79.106,54.957 c 4.163,2.501 4.992,4.164 4.992,5.831 0,2.496 -1.662,4.163 -4.992,4.163 h -336.414 c 24.983,98.258 114.917,170.704 220.668,170.704 125.731,0 228.161,-102.421 228.161,-228.162 0,-6.66 0,-12.491 -0.833,-19.151 z M 0,29.975 c -125.736,0 -228.161,102.425 -228.161,228.161 0,6.665 0,12.491 0.833,19.152 L -36.64,265.63 -115.746,210.673 c -4.163,-2.497 -4.997,-4.164 -4.997,-5.827 0,-2.501 1.667,-4.163 4.997,-4.163 H 220.667 C 195.685,102.421 105.751,29.975 0,29.975 m -355.564,-263.134 c 41.637,0 66.614,17.489 66.614,59.126 0,41.632 -24.977,59.121 -66.614,59.121 -41.633,0 -66.615,-17.489 -66.615,-59.121 0,-41.637 24.982,-59.126 66.615,-59.126 m 225.664,1.668 v 35.806 h 39.137 c 25.811,0 44.962,9.161 44.962,39.136 0,29.979 -15.821,39.136 -44.962,39.136 h -64.952 v -114.078 z m 311.427,0 v 23.315 h -71.612 v 24.148 h 64.952 v 20.814 h -64.952 v 22.486 h 71.612 v 23.315 H 84.103 v -114.078 z m 249.809,0 v 23.315 H 362.22 v 90.763 h -25.807 v -114.078 z m -786.9,21.652 c -28.313,0 -39.137,9.99 -39.137,35.806 0,25.811 10.824,35.806 39.137,35.806 28.312,0 39.136,-9.995 39.136,-35.806 0,-25.816 -10.824,-35.806 -39.136,-35.806 m 225.664,70.778 h 37.469 c 14.988,0 20.819,-4.997 20.819,-17.488 0,-11.662 -5.831,-17.484 -20.819,-17.484 H -129.9 Z"
             style="fill:#1e201d;fill-opacity:1;fill-rule:nonzero;stroke:none"
             id="path20" />
        </g>
      </g>
    </g>
  </g>
</svg>
