<svg width="131" height="131" viewBox="0 0 131 131" fill="none" xmlns="http://www.w3.org/2000/svg">
<rect x="1" y="1" width="129" height="129" rx="64.5" fill="#FAC100" fill-opacity="0.2" stroke="#FAC100" stroke-width="2"/>
<g clip-path="url(#clip0_908_476)">
<path d="M75.2482 75.0664H56.752V87.1657H75.2482V75.0664Z" fill="#F9BC90"/>
<g style="mix-blend-mode:multiply">
<path d="M75.2482 80.5093V75.0664H56.752V82.0173C62.4601 85.6019 69.2523 83.9822 75.2482 80.5144V80.5093Z" fill="#DADADA"/>
</g>
<path d="M85.8629 55.2657C84.4911 70.1575 73.8763 82.008 65.4811 82.008C58.2881 82.008 46.1268 69.1877 46.1268 54.4229C46.1268 39.658 53.2839 28.5234 65.4862 28.5234C77.6886 28.5234 85.8681 40.4958 85.8681 55.2657H85.8629Z" fill="#F9BC90"/>
<path d="M84.6659 53.4018C84.6865 52.96 85.9401 52.0867 86.2792 51.9192C88.9149 50.6296 88.2367 56.0014 88.0826 57.1793C87.764 59.6063 86.757 62.3988 84.1984 63.2569L84.671 53.4018H84.6659Z" fill="#F9BC90"/>
<g style="mix-blend-mode:multiply">
<path d="M87.6047 56.0108C87.6253 54.8938 87.5123 52.8882 86.6388 52.7359C86.0428 52.6293 85.3492 53.0101 85.2927 54.1423C85.2927 54.1576 85.303 54.1576 85.3081 54.1423C85.5701 53.2436 85.9452 52.8273 86.4384 52.8882C87.0858 52.873 87.317 53.9799 87.4095 54.8125C87.5071 55.7163 87.3684 56.6607 87.1732 57.5594C87.0087 58.3108 86.757 59.0521 86.459 59.702C86.0634 60.5652 85.5907 60.6007 85.0255 60.7479C84.8868 60.7835 84.8046 61.1287 84.9279 61.2404C86.5361 62.7281 87.579 57.798 87.6099 56.0209L87.6047 56.0108Z" fill="#E2E1E1"/>
</g>
<g style="mix-blend-mode:multiply">
<path d="M85.6524 55.645C85.6678 55.4064 85.8939 55.1271 86.1662 55.1779C86.4642 55.2388 86.418 55.5892 86.4231 55.843C86.4334 56.2746 86.2998 57.4475 85.9864 57.747C85.4315 58.2802 85.375 57.3104 85.3955 56.9499C85.4264 56.4219 85.6524 56.0258 85.6524 55.4673" fill="#E2E1E1"/>
</g>
<path d="M47.7041 53.4018C47.6836 52.96 46.43 52.0867 46.0909 51.9192C43.4551 50.6296 44.1333 56.0014 44.2875 57.1793C44.606 59.6063 45.613 62.3988 48.1717 63.2569L47.699 53.4018H47.7041Z" fill="#F9BC90"/>
<g style="mix-blend-mode:multiply">
<path d="M44.7601 56.0108C44.7396 54.8938 44.8526 52.8882 45.7261 52.7359C46.322 52.6293 47.0157 53.0101 47.0722 54.1423C47.0722 54.1576 47.0619 54.1576 47.0568 54.1423C46.7947 53.2436 46.4197 52.8273 45.9264 52.8882C45.2791 52.873 45.0479 53.9799 44.9554 54.8125C44.8578 55.7163 44.9965 56.6607 45.1917 57.5594C45.3561 58.3108 45.6079 59.0521 45.9059 59.702C46.3015 60.5652 46.7742 60.6007 47.3393 60.7479C47.4781 60.7835 47.5603 61.1287 47.437 61.2404C45.8288 62.7281 44.7858 57.798 44.755 56.0209L44.7601 56.0108Z" fill="#E2E1E1"/>
</g>
<g style="mix-blend-mode:multiply">
<path d="M46.7176 55.645C46.7022 55.4064 46.4762 55.1271 46.2039 55.1779C45.9059 55.2388 45.9521 55.5892 45.947 55.843C45.9367 56.2746 46.0703 57.4475 46.3837 57.747C46.9386 58.2802 46.9951 57.3104 46.9745 56.9499C46.9437 56.4219 46.7176 56.0258 46.7176 55.4673" fill="#E2E1E1"/>
</g>
<path d="M90.3637 89.4826C83.4533 89.0561 74.8269 85.6949 74.2669 85.4766H65.661L57.6922 85.4867C57.6922 85.4867 48.7266 89.0916 41.5799 89.5486C41.5799 89.5486 24.6815 91.544 25.0052 109H106.995C107.36 91.5541 90.3637 89.4826 90.3637 89.4826Z" fill="#F9BC90"/>
<path d="M90.3637 89.4822C83.4533 89.0557 75.8082 85.7097 75.2482 85.4863L66.0001 104.516L56.7519 85.4863C56.7519 85.4863 48.7266 89.0912 41.5799 89.5482C41.5799 89.5482 24.6815 91.5436 25.0052 108.999H106.995C107.36 91.5537 90.3637 89.4822 90.3637 89.4822Z" fill="#431879"/>
<path d="M84.1932 57.9112C84.1932 57.9112 84.2959 52.8085 86.2791 51.92C86.2791 51.92 86.4384 51.392 87.6047 51.722C87.6047 51.722 89.1152 38.851 82.7803 31.0623C82.7803 31.0623 79.0142 26.3252 72.335 26.1526C72.335 26.1526 70.1103 21.1159 61.376 22.1313C61.376 22.1313 49.0452 23.7815 44.7602 35.8401C44.7602 35.8401 42.8489 44.2228 44.7602 51.9454C44.7602 51.9454 48.1718 50.9452 47.5038 57.9062H48.1718L49.2147 46.797C49.2147 46.797 48.5314 40.8717 51.9532 39.0134C51.9532 39.0134 55.7192 34.9516 62.7427 34.4438C62.7427 34.4438 65.3116 39.181 73.8764 43.0753C73.8764 43.0753 72.1655 40.7042 72.6793 39.6887C72.6793 39.6887 74.5649 43.583 78.5004 46.4568C78.5004 46.4568 77.1286 44.0857 77.4729 43.2428C77.4729 43.2428 81.7887 44.4106 83.1245 50.6913L83.4687 57.9062H84.1983L84.1932 57.9112Z" fill="#432918"/>
</g>
<defs>
<clipPath id="clip0_908_476">
<rect width="82" height="87" fill="white" transform="translate(25 22)"/>
</clipPath>
</defs>
</svg>
