<svg width="16" height="16" viewBox="0 0 16 16" fill="none" xmlns="http://www.w3.org/2000/svg">
<path fill-rule="evenodd" clip-rule="evenodd" d="M7.25825 0C11.2604 0 14.5158 3.25537 14.5158 7.2575C14.5158 9.1457 13.7911 10.8678 12.6053 12.1603L14.9386 14.4887C15.157 14.7071 15.1577 15.0603 14.9394 15.2787C14.8306 15.389 14.6867 15.4434 14.5436 15.4434C14.4013 15.4434 14.2582 15.389 14.1486 15.2802L11.7872 12.9253C10.545 13.9202 8.96991 14.5158 7.25825 14.5158C3.25611 14.5158 0 11.2596 0 7.2575C0 3.25537 3.25611 0 7.25825 0ZM7.25825 1.11792C3.87246 1.11792 1.11792 3.87171 1.11792 7.2575C1.11792 10.6433 3.87246 13.3978 7.25825 13.3978C10.6433 13.3978 13.3978 10.6433 13.3978 7.2575C13.3978 3.87171 10.6433 1.11792 7.25825 1.11792Z" fill="#373950"/>
</svg>
