<svg width="17" height="17" viewBox="0 0 17 17" fill="none" xmlns="http://www.w3.org/2000/svg">
<g clip-path="url(#clip0_211_545)">
<path d="M17 11.7131C16.8953 12.033 16.7434 12.3188 16.4188 12.4395C16.2711 12.4943 16.1074 12.5273 15.9508 12.5278C14.1192 12.5338 12.2879 12.5331 10.4563 12.5308C9.78787 12.5301 9.39912 12.1181 9.39816 11.4187C9.39744 10.7558 9.39719 10.0928 9.39816 9.42992C9.39912 8.73454 9.79316 8.32602 10.464 8.32577C12.2456 8.32502 14.0274 8.32577 15.809 8.32577C16.5123 8.32577 16.7369 8.48197 16.9998 9.15357V11.7133L17 11.7131ZM11.71 11.1363C12.1889 11.1246 12.3491 10.9594 12.3491 10.4675C12.3491 10.4099 12.3511 10.3523 12.3479 10.295C12.3338 10.0352 12.1685 9.83994 11.9376 9.8084C11.4743 9.74507 11.1915 9.85746 11.1024 10.1403C11.099 10.1513 11.0933 10.1623 11.0933 10.1731C11.0933 10.3679 11.075 10.5654 11.1002 10.7566C11.1223 10.9243 11.2415 11.0432 11.4015 11.0903C11.5005 11.1193 11.607 11.1218 11.71 11.1361V11.1363Z" fill="#6B7A91"/>
<path d="M16.0049 7.63446C15.9342 7.63446 15.8694 7.63446 15.8045 7.63446C14.0118 7.63446 12.2189 7.63196 10.4263 7.63571C9.72807 7.63721 9.19275 7.94936 8.89843 8.6172C8.79367 8.85475 8.74778 9.13686 8.73961 9.40094C8.71822 10.0921 8.73096 10.7842 8.73264 11.4758C8.73528 12.4914 9.44215 13.2278 10.422 13.2293C12.2146 13.2318 14.0075 13.23 15.8002 13.23C15.8655 13.23 15.9306 13.23 16.0065 13.23C16.0106 13.3016 16.0164 13.3574 16.0164 13.413C16.0169 14.2373 16.0181 15.0616 16.0164 15.8859C16.0152 16.5978 15.6293 16.9993 14.9455 16.9993C10.3199 16.9998 5.6942 16.9998 1.06853 16.9993C0.388332 16.9993 5.71637e-05 16.5918 -0.000183105 15.8811C5.71637e-05 12.2616 5.71637e-05 8.64148 5.71637e-05 5.02141C5.71637e-05 4.3463 0.39578 3.92952 1.04138 3.92927C5.68915 3.92852 10.3369 3.92852 14.9847 3.92927C15.6012 3.92927 16.0034 4.31276 16.0128 4.94005C16.0258 5.8044 16.0164 6.66924 16.0159 7.53408C16.0159 7.56162 16.0099 7.5889 16.0046 7.63471L16.0049 7.63446Z" fill="#6B7A91"/>
<path d="M14.0685 3.2276H6.26383C6.26215 3.21909 6.26023 3.21083 6.25854 3.20232C6.56993 3.11221 6.88132 3.02109 7.19319 2.93248C8.96181 2.42984 10.7309 1.92821 12.4995 1.42582C13.1495 1.24134 13.6226 1.52044 13.8025 2.19805C13.8921 2.53523 13.9772 2.87365 14.0685 3.22735V3.2276Z" fill="#6B7A91"/>
<path d="M3.11993 3.20155C3.15717 3.17952 3.19321 3.15574 3.23142 3.13596C5.1663 2.1362 7.10119 1.13619 9.0368 0.137923C9.50869 -0.105384 10.001 -0.0272857 10.2744 0.376225C10.463 0.654326 10.5921 0.976234 10.7586 1.29939C10.3898 1.40553 10.0507 1.5039 9.71123 1.60077C7.84146 2.13295 5.97385 2.67413 4.09927 3.18728C3.79196 3.27139 3.4539 3.23309 3.13002 3.25136C3.12666 3.23484 3.12305 3.21807 3.11969 3.20155H3.11993Z" fill="#6B7A91"/>
</g>
<defs>
<clipPath id="clip0_211_545">
<rect width="17" height="17" fill="white"/>
</clipPath>
</defs>
</svg>
