<svg width="510" height="297" viewBox="0 0 510 297" fill="none" xmlns="http://www.w3.org/2000/svg">
<path d="M510 148.5C510 168.001 506.159 187.312 498.696 205.328C491.233 223.345 480.295 239.716 466.505 253.505C452.716 267.295 436.345 278.233 418.328 285.696C400.312 293.159 381.001 297 361.5 297C341.999 297 322.688 293.159 304.672 285.696C286.655 278.233 270.284 267.295 256.495 253.505C242.705 239.716 231.767 223.345 224.304 205.328C216.841 187.312 213 168.001 213 148.5L361.5 148.5H510Z" fill="#431879"/>
<path d="M283 148.5C283 167.082 279.34 185.482 272.229 202.65C265.118 219.817 254.695 235.416 241.556 248.556C228.416 261.695 212.817 272.118 195.65 279.229C178.482 286.34 160.082 290 141.5 290C122.918 290 104.518 286.34 87.3503 279.229C70.1827 272.118 54.5839 261.695 41.4444 248.556C28.3049 235.416 17.8821 219.817 10.771 202.65C3.66 185.482 -1.62449e-06 167.082 0 148.5L141.5 148.5H283Z" fill="#FAC100"/>
</svg>
