<svg width="89" height="51" viewBox="0 0 89 51" fill="none" xmlns="http://www.w3.org/2000/svg">
<path d="M54.4677 31.6055H50.9816C47.1058 31.6055 43.9649 35.9467 43.9649 41.3027C43.9649 46.6587 47.1058 51 50.9816 51H54.4677C58.3434 51 61.4843 46.6587 61.4843 41.3027C61.4843 35.9467 58.3434 31.6055 54.4677 31.6055Z" fill="#263238"/>
<path opacity="0.1" d="M55.566 50.3119C58.8043 50.3119 61.4294 46.2782 61.4294 41.3024C61.4294 36.3266 58.8043 32.293 55.566 32.293C52.3278 32.293 49.7027 36.3266 49.7027 41.3024C49.7027 46.2782 52.3278 50.3119 55.566 50.3119Z" fill="white"/>
<path opacity="0.6" d="M56.0734 36.4336C54.3238 36.4336 52.9064 38.6147 52.9064 41.3031C52.9064 43.9916 54.3238 46.1727 56.0734 46.1727C57.823 46.1727 59.2405 43.9916 59.2405 41.3031C59.2405 38.6147 57.823 36.4336 56.0734 36.4336Z" fill="#263238"/>
<path d="M14.3344 31.6055H10.8483C6.97255 31.6055 3.83167 35.9467 3.83167 41.3027C3.83167 46.6587 6.97255 51 10.8483 51H14.3344C18.2102 51 21.3511 46.6587 21.3511 41.3027C21.3511 35.9467 18.2102 31.6055 14.3344 31.6055Z" fill="#263238"/>
<path opacity="0.1" d="M15.4302 50.3119C18.6684 50.3119 21.2935 46.2782 21.2935 41.3024C21.2935 36.3266 18.6684 32.293 15.4302 32.293C12.1919 32.293 9.56683 36.3266 9.56683 41.3024C9.56683 46.2782 12.1919 50.3119 15.4302 50.3119Z" fill="white"/>
<path opacity="0.6" d="M15.9402 46.1727C17.6893 46.1727 19.1072 43.9925 19.1072 41.3031C19.1072 38.6138 17.6893 36.4336 15.9402 36.4336C14.1911 36.4336 12.7731 38.6138 12.7731 41.3031C12.7731 43.9925 14.1911 46.1727 15.9402 46.1727Z" fill="#263238"/>
<path d="M86.1512 30.7886L86.1982 40.7683C86.2061 42.3662 84.9116 43.666 83.3137 43.666H57.8806C55.7413 45.8392 52.8175 47.0631 49.7681 47.0631H33.491L31.6394 44.2858H27.9336L27.442 44.7513C26.0794 46.038 24.2775 46.7545 22.4024 46.7545C20.4122 46.7545 18.5083 45.9464 17.1275 44.5159L16.9026 44.2832H8.4371C7.03796 44.2832 5.8428 43.2763 5.6022 41.9007L3.34003 28.9004L86.1538 30.7886H86.1512Z" fill="#263238"/>
<path d="M88.2146 28.9009L86.8599 27.9018C85.6255 20.1006 83.8576 16.6459 83.8576 16.6459L80.7925 14.0412C79.6131 9.78618 75.3424 2.64399 73.0985 1.8202C73.0933 1.8202 73.0907 1.8202 73.0855 1.8202C72.722 1.72605 64.5232 0 51.6955 0C35.6433 0 31.0326 2.69107 31.0326 2.69107C24.6593 7.3854 17.3628 16.4785 17.3628 16.4785C17.3628 16.4785 11.829 18.3092 6.96209 22.674C6.6195 22.98 6.28213 23.299 5.94739 23.6338C5.66233 23.9162 5.3825 24.2091 5.1079 24.5125C4.89868 24.7427 4.69208 24.9754 4.48809 25.2186C3.74537 26.1026 3.13602 27.0807 2.64697 28.0248C2.28607 28.7256 1.99055 29.4161 1.74733 30.0385C1.65057 30.2948 1.56165 30.538 1.48058 30.7708C1.43089 30.9172 0.238347 32.2954 0.238347 32.2954C-0.454688 32.672 0.463256 38.266 1.71072 41.1558C1.87809 41.5481 2.27038 41.7992 2.69666 41.7992H36.046C36.1036 35.0205 40.1205 29.5547 45.0712 29.5547C50.0218 29.5547 54.0362 35.0231 54.0963 41.7992H69.3902C69.4477 35.0205 73.4647 29.5547 78.4153 29.5547C79.4117 29.5547 80.3715 29.777 81.2685 30.1876C84.6265 31.7227 87.1057 35.8966 87.4064 40.9126C87.4143 40.9963 87.4169 41.08 87.4221 41.1637C87.5111 41.0721 87.5869 40.9675 87.6549 40.8577C87.8589 40.7688 88.021 40.5857 88.1309 40.2849C89.4123 36.7989 88.2119 28.9061 88.2119 28.9061L88.2146 28.9009ZM18.5528 16.3896C25.0019 7.96336 31.7414 2.77476 31.7414 2.77476C43.0365 0.988555 54.8286 2.77476 54.8286 2.77476C49.9799 8.13597 46.3056 16.3896 46.3056 16.3896C28.0722 14.5511 18.5528 16.3896 18.5528 16.3896ZM48.5259 17.5116C50.7044 9.17683 56.5729 2.77476 56.5729 2.77476C59.4471 2.34847 62.0911 2.17587 64.3925 2.14187C64.5938 3.66655 65.007 7.68092 65.0986 15.4037C55.7204 16.3556 48.5259 17.5116 48.5259 17.5116ZM75.6092 14.5276C75.4941 14.5354 75.379 14.5433 75.264 14.5511C75.0469 14.5642 74.8298 14.5799 74.6154 14.593C74.5134 14.5982 74.4088 14.606 74.3068 14.6139C71.5503 14.7996 68.8436 15.0323 66.278 15.2834C66.1813 12.0771 65.9381 6.11701 65.4098 2.13402C69.8661 2.14449 72.837 2.65969 73.3679 2.75906C73.4228 2.76952 73.4542 2.77476 73.4542 2.77476C73.4594 2.77999 73.4621 2.78522 73.4647 2.79045C73.5405 2.87936 73.6137 2.97351 73.6844 3.06504C73.7131 3.09904 73.7419 3.13827 73.7707 3.17488C77.5575 8.03659 80.042 14.2974 80.042 14.2974C78.567 14.3576 77.0842 14.436 75.6144 14.5276H75.6092Z" fill="#A13BCD"/>
<path d="M45.2072 31.6055H41.7211C37.8454 31.6055 34.7045 35.9467 34.7045 41.3027C34.7045 46.6587 37.8454 51 41.7211 51H45.2072C49.083 51 52.2239 46.6587 52.2239 41.3027C52.2239 35.9467 49.083 31.6055 45.2072 31.6055Z" fill="#263238"/>
<path opacity="0.2" d="M46.3056 50.3119C49.5438 50.3119 52.1689 46.2782 52.1689 41.3024C52.1689 36.3266 49.5438 32.293 46.3056 32.293C43.0674 32.293 40.4423 36.3266 40.4423 41.3024C40.4423 46.2782 43.0674 50.3119 46.3056 50.3119Z" fill="white"/>
<path opacity="0.6" d="M46.813 36.4336C45.0634 36.4336 43.6459 38.6147 43.6459 41.3031C43.6459 43.9916 45.0634 46.1727 46.813 46.1727C48.5626 46.1727 49.98 43.9916 49.98 41.3031C49.98 38.6147 48.5626 36.4336 46.813 36.4336Z" fill="white"/>
<path d="M77.9315 31.6055H74.4454C70.5696 31.6055 67.4287 35.9467 67.4287 41.3027C67.4287 46.6587 70.5696 51 74.4454 51H77.9315C81.8072 51 84.9481 46.6587 84.9481 41.3027C84.9481 35.9467 81.8072 31.6055 77.9315 31.6055Z" fill="#263238"/>
<path opacity="0.2" d="M79.0298 50.3119C82.2681 50.3119 84.8932 46.2782 84.8932 41.3024C84.8932 36.3266 82.2681 32.293 79.0298 32.293C75.7916 32.293 73.1665 36.3266 73.1665 41.3024C73.1665 46.2782 75.7916 50.3119 79.0298 50.3119Z" fill="white"/>
<path opacity="0.6" d="M79.5372 46.1727C81.2863 46.1727 82.7042 43.9925 82.7042 41.3031C82.7042 38.6138 81.2863 36.4336 79.5372 36.4336C77.7881 36.4336 76.3701 38.6138 76.3701 41.3031C76.3701 43.9925 77.7881 46.1727 79.5372 46.1727Z" fill="white"/>
<path d="M6.57245 42.1786L7.58716 37.275C7.68915 36.786 8.12066 36.4355 8.62017 36.4355H15.8905C16.5757 36.4355 17.2007 36.8278 17.5015 37.4424L19.8029 42.1786H6.57245Z" fill="#263238"/>
<path opacity="0.7" d="M38.7423 27.4144L33.8152 30.516L23.3517 32.7678H6.04416L1.48059 30.7671C1.56166 30.5344 1.64797 30.2911 1.74734 30.0348C1.99056 29.4124 2.28608 28.722 2.64698 28.0211C2.66529 27.9897 2.67836 27.9584 2.69667 27.927C3.17526 27.0116 3.76891 26.0702 4.4881 25.2176C4.69209 24.9744 4.89608 24.7416 5.10791 24.5115C7.2184 25.0319 7.92451 27.417 7.92451 27.417L8.31156 31.1202L8.42402 32.195H20.2919L21.0346 31.1254L23.6159 27.4196C23.6159 27.4196 27.1778 25.5367 30.1879 24.9456C32.5861 24.4749 37.1575 24.4121 37.1575 24.4121C38.4808 24.943 38.7423 27.4196 38.7423 27.4196V27.4144Z" fill="white"/>
<path d="M31.914 28.2581C31.7963 29.1891 31.1032 29.8691 30.3657 29.7749C29.6282 29.6808 29.1287 28.8491 29.2464 27.9181C29.3641 26.9871 30.0571 26.3071 30.7946 26.4013C31.5321 26.4954 32.0316 27.3271 31.914 28.2581Z" fill="white"/>
<path d="M27.9237 30.1413C28.4988 28.9147 28.1784 27.5514 27.2081 27.0965C26.2377 26.6415 24.9849 27.2671 24.4097 28.4938C23.8346 29.7204 24.155 31.0837 25.1253 31.5386C26.0957 31.9936 27.3485 31.368 27.9237 30.1413Z" fill="white"/>
<path d="M7.62403 30.1413C8.19916 28.9147 7.87878 27.5514 6.90843 27.0965C5.93809 26.6415 4.68523 27.2671 4.1101 28.4938C3.53496 29.7204 3.85535 31.0837 4.82569 31.5386C5.79604 31.9936 7.0489 31.368 7.62403 30.1413Z" fill="white"/>
<path d="M5.13669 26.7897C4.59011 26.9884 4.0906 27.4749 3.82123 28.1496C3.69047 28.4791 3.63032 28.8165 3.63294 29.1329C3.59632 29.1329 3.55971 29.1251 3.52833 29.1094C3.11512 28.9446 3.0602 28.1051 3.40803 27.2316C3.75324 26.3608 4.37043 25.7854 4.78625 25.9528C5.02424 26.0469 5.14454 26.3686 5.13669 26.7897Z" fill="white"/>
<path d="M28.9117 36.1754L29.5315 36.3244C29.7826 36.3846 29.9421 36.6278 29.9002 36.8815L29.3537 40.1793C29.3144 40.4172 29.1104 40.5899 28.8698 40.5899H23.9741C23.7022 40.5899 23.4825 40.3702 23.4825 40.0982C23.4825 39.8628 23.6499 39.6588 23.8826 39.617C24.6724 39.4679 26.5214 38.8586 28.4017 36.361C28.5194 36.2041 28.7208 36.1283 28.9117 36.1727V36.1754Z" fill="#263238"/>
<path d="M28.9117 36.1771L25.002 36.1641L28.9117 37.1578V36.1771Z" fill="#263238"/>
<path d="M3.82905 36.1641L0.910461 36.4334L2.36976 40.8558H4.65547L4.15596 39.7338C4.15596 39.7338 2.6182 38.9414 1.91994 37.1578L3.82905 36.1641Z" fill="#263238"/>
<path opacity="0.7" d="M28.9666 39.3779C28.9666 39.9297 28.6005 40.3769 28.148 40.3769C27.6956 40.3769 27.3295 39.9297 27.3295 39.3779C27.3295 38.8261 27.6956 38.3789 28.148 38.3789C28.6005 38.3789 28.9666 38.8261 28.9666 39.3779Z" fill="white"/>
<path opacity="0.7" d="M3.16216 39.4002C3.31122 39.9311 3.23015 40.4201 2.98432 40.4881C2.73849 40.5561 2.41943 40.1822 2.27036 39.6486C2.1213 39.1178 2.20237 38.6287 2.4482 38.5607C2.69403 38.4927 3.01309 38.8667 3.16216 39.4002Z" fill="white"/>
<path opacity="0.7" d="M14.6012 28.9004H12.5979C12.4305 28.9004 12.3128 29.0625 12.3651 29.2221L12.9483 31.0396C13.0085 31.2279 13.2543 31.2698 13.3746 31.1155L14.7921 29.2979C14.9176 29.1358 14.8025 28.9004 14.5986 28.9004H14.6012ZM13.9918 29.3319L13.2831 30.242C13.2229 30.3205 13.1 30.2969 13.0686 30.2028L12.7757 29.2927C12.7496 29.2142 12.8097 29.1331 12.8934 29.1331H13.8951C13.9971 29.1331 14.0546 29.2508 13.9918 29.3319Z" fill="white"/>
<path opacity="0.2" d="M38.7423 27.4144L33.8152 30.516L23.3517 32.7678H6.04416L1.48059 30.7671C1.56166 30.5344 1.64797 30.2911 1.74734 30.0348C2.00102 29.3837 2.31223 28.6592 2.69667 27.9244L2.33054 30.1264C2.26516 30.5108 2.46915 30.8926 2.82743 31.0522L5.42958 32.2212C5.85063 32.4095 6.3423 32.3755 6.73197 32.127L8.31418 31.1175L8.42663 32.1924H20.2945L21.0373 31.1228L22.6875 32.2343C22.9647 32.4199 23.3073 32.4879 23.6342 32.4173L32.9391 30.4481C33.5223 30.3251 33.9931 29.8936 34.1683 29.3261L34.7097 27.5739C34.8613 27.0823 34.6913 26.5461 34.286 26.2323L32.947 25.1967C35.3452 24.7259 37.1601 24.4121 37.1601 24.4121C38.4834 24.943 38.7449 27.4196 38.7449 27.4196L38.7423 27.4144Z" fill="black"/>
<path d="M8.30896 31.1191H8.80062L8.9 31.9063H19.8029L20.3442 31.1191L21.032 31.1244L20.2893 32.194H8.42141L8.30896 31.1191Z" fill="#263238"/>
<path d="M7.86176 32.7683L8.30896 32.4492H20.3442L20.6188 32.7683H7.86176Z" fill="#263238"/>
<path opacity="0.2" d="M88.2145 28.9013L86.8598 27.9023C86.4414 25.2688 85.9654 23.1322 85.5182 21.4584C84.7154 18.4744 84.0066 16.9498 83.8785 16.6882C83.8654 16.6595 83.8576 16.649 83.8576 16.649L80.7925 14.0442C79.613 9.78927 75.3424 2.64709 73.0985 1.82329C73.0933 1.82329 73.0907 1.82329 73.0854 1.82329C61.0423 0.280311 56.076 2.13974 56.076 2.13974C49.7707 9.8285 47.1816 17.5173 47.1816 17.5173C41.3183 20.7628 37.1601 24.4136 37.1601 24.4136C37.4268 26.8249 35.7243 29.3224 35.7243 29.3224L33.8178 30.5228L34.0218 33.2975C32.8319 37.0609 30.9515 41.7996 30.9515 41.7996H36.0512C36.1088 35.021 40.1258 29.5552 45.0764 29.5552C50.027 29.5552 54.0414 35.0236 54.1015 41.7996H69.3954C69.4529 35.021 73.4699 29.5552 78.4205 29.5552C79.4169 29.5552 80.3767 29.7774 81.2737 30.188C84.6317 31.7232 87.1109 35.8971 87.4117 40.9131C87.4195 40.9968 87.4221 41.0805 87.4273 41.1641C87.5163 41.0726 87.5921 40.968 87.6601 40.8582C87.8641 40.7692 88.0262 40.5862 88.1361 40.2854C89.4175 36.7993 88.2171 28.9066 88.2171 28.9066L88.2145 28.9013ZM48.5285 17.512C50.707 9.17731 56.5755 2.77524 56.5755 2.77524C59.4497 2.34896 62.0937 2.17635 64.3951 2.14235C64.5964 3.66703 65.0096 7.6814 65.1012 15.4042C55.723 16.3561 48.5285 17.512 48.5285 17.512ZM75.6118 14.5281C75.4967 14.5359 75.3816 14.5438 75.2665 14.5516C75.0495 14.5647 74.8324 14.5804 74.618 14.5934C74.516 14.5987 74.4114 14.6065 74.3094 14.6144C71.5529 14.8 68.8462 15.0328 66.2806 15.2839C66.1839 12.0776 65.9406 6.1175 65.4124 2.13451C69.8687 2.14497 72.8396 2.66017 73.3705 2.75955C73.4254 2.77001 73.4568 2.77524 73.4568 2.77524C73.462 2.78047 73.4647 2.7857 73.4673 2.79093C73.5431 2.87985 73.6163 2.97399 73.687 3.06553C73.7157 3.09953 73.7445 3.13875 73.7733 3.17537C77.5601 8.03707 80.0446 14.2979 80.0446 14.2979C78.5696 14.3581 77.0867 14.4365 75.617 14.5281H75.6118Z" fill="black"/>
<path d="M75.6092 14.5302C75.4941 14.5381 75.3791 14.5459 75.264 14.5538C74.4507 7.89279 73.7759 4.45115 73.3654 2.76172C73.4203 2.77218 73.4517 2.77741 73.4517 2.77741C73.4569 2.78264 73.4595 2.78787 73.4621 2.7931C73.538 2.88202 73.6112 2.97617 73.6818 3.0677C74.6887 7.58681 75.3006 11.9542 75.6092 14.5329V14.5302Z" fill="#263238"/>
<path d="M33.0987 41.795H35.489C36.5377 41.795 37.453 41.0784 37.6963 40.0558C38.3161 37.4275 40.131 32.6417 45.2098 31.606C50.5606 30.5155 52.3311 36.8862 52.8777 40.0689C53.0476 41.0653 53.908 41.795 54.9201 41.795H55.4929C55.4929 41.795 55.4929 26.2631 44.2971 27.4844C36.4017 28.3449 34.1683 40.1134 34.1683 40.1134L33.1013 41.795H33.0987Z" fill="#A13BCD"/>
<path opacity="0.2" d="M33.0987 41.795H35.489C36.5377 41.795 37.453 41.0784 37.6963 40.0558C38.3161 37.4275 40.131 32.6417 45.2098 31.606C50.5606 30.5155 52.3311 36.8862 52.8777 40.0689C53.0476 41.0653 53.908 41.795 54.9201 41.795H55.4929C55.4929 41.795 55.4929 26.2631 44.2971 27.4844C36.4017 28.3449 34.1683 40.1134 34.1683 40.1134L33.1013 41.795H33.0987Z" fill="black"/>
<path d="M65.823 41.795H68.2133C69.262 41.795 70.1773 41.0784 70.4206 40.0558C71.0404 37.4275 72.8553 32.6417 77.9341 31.606C83.2849 30.5155 85.0554 36.8862 85.602 40.0689C85.7719 41.0653 86.6324 41.795 87.6444 41.795H88.2172C88.2172 41.795 88.2172 26.2631 77.0214 27.4844C69.126 28.3449 66.8926 40.1134 66.8926 40.1134L65.8256 41.795H65.823Z" fill="#A13BCD"/>
<path opacity="0.2" d="M65.823 41.795H68.2133C69.262 41.795 70.1773 41.0784 70.4206 40.0558C71.0404 37.4275 72.8553 32.6417 77.9341 31.606C83.2849 30.5155 85.0554 36.8862 85.602 40.0689C85.7719 41.0653 86.6324 41.795 87.6444 41.795H88.2172C88.2172 41.795 88.2172 26.2631 77.0214 27.4844C69.126 28.3449 66.8926 40.1134 66.8926 40.1134L65.8256 41.795H65.823Z" fill="black"/>
<path opacity="0.2" d="M45.9891 27.4309C47.3726 27.3185 48.7665 27.7787 49.9538 28.5058C51.1568 29.2354 52.1349 30.2894 52.9273 31.4453C53.7093 32.6117 54.3134 33.8879 54.7763 35.206C55.2418 36.5241 55.5739 37.8814 55.8328 39.2491L55.4876 38.9588L61.4582 38.9353L67.4287 38.9562L67.0809 39.2334C67.4392 37.8238 67.9256 36.4875 68.5193 35.1798C69.126 33.8853 69.8348 32.6274 70.7187 31.495C71.5948 30.36 72.6487 29.3453 73.8831 28.6078C74.5029 28.2443 75.162 27.954 75.8419 27.7448C76.5271 27.5434 77.2385 27.4545 77.9419 27.4257C77.2385 27.5068 76.5506 27.6637 75.889 27.8938C75.2326 28.1396 74.6101 28.4613 74.0322 28.8484C72.8867 29.6408 71.9112 30.6555 71.111 31.7905C70.3003 32.9203 69.6412 34.1573 69.092 35.4361C68.5428 36.7124 68.0826 38.0514 67.7713 39.3851L67.706 39.6623H67.4235L61.4529 39.6833L55.4824 39.6597H55.1869L55.1398 39.3694C54.9149 38.0252 54.6063 36.6967 54.1905 35.4021C53.7825 34.105 53.2228 32.8627 52.522 31.7068C51.8028 30.564 50.9136 29.5153 49.7995 28.7359C48.6906 27.967 47.3673 27.444 45.9839 27.4335L45.9891 27.4309Z" fill="black"/>
<path d="M34.0192 33.2923C34.0192 33.2923 41.3759 26.4561 48.5259 28.0096C48.5259 28.0096 45.2176 26.3123 38.7423 27.4159L33.0961 31.1191L34.0192 33.2923Z" fill="#A13BCD"/>
<path d="M49.0594 19.4439C49.0594 19.4439 77.6098 16.0676 83.855 16.6456L81.3914 14.5508C81.3914 14.5508 52.6056 16.6116 49.0594 19.4439Z" fill="#A13BCD"/>
<path opacity="0.7" d="M85.5157 21.4579C84.1453 18.9133 82.7043 18.1915 82.7043 18.1915L81.0829 15.8535C82.1656 15.8535 83.1045 16.2118 83.8733 16.6852C84.0015 16.9493 84.7128 18.474 85.5131 21.4553L85.5157 21.4579Z" fill="white"/>
<path d="M57.1117 18.2145C57.1117 18.7376 51.7531 19.6241 51.6694 19.6241C51.5857 19.6241 50.5422 19.4437 50.5422 19.4437L48.6357 19.6241C48.6357 19.6241 48.5651 19.5614 48.4945 19.4201C48.437 19.3077 48.382 19.1429 48.3611 18.9154C48.3559 18.8631 48.3533 18.8082 48.3533 18.748C48.3245 18.2668 48.5259 17.511 48.5259 17.511C49.6687 17.5738 50.3722 17.1109 50.7044 16.8101C50.9816 16.1249 51.3582 15.3796 51.7714 15.0605C51.7714 15.0605 55.5373 15.3273 56.3245 15.7771C56.3245 15.7771 56.3297 15.7771 56.3323 15.7823C57.1038 16.2322 57.1091 18.2171 57.1091 18.2171L57.1117 18.2145Z" fill="#263238"/>
<path d="M57.1117 18.2152L56.9051 18.04C56.9051 18.04 51.0365 19.2299 50.9894 18.04C50.9398 16.85 51.774 15.0586 51.774 15.0586C51.774 15.0586 55.5635 15.3253 56.335 15.7804C57.1065 16.2302 57.1117 18.2152 57.1117 18.2152Z" fill="#A13BCD"/>
<path opacity="0.2" d="M57.1117 18.2154C57.1117 18.7384 51.7531 19.625 51.6694 19.625C51.5857 19.625 50.5422 19.4446 50.5422 19.4446L48.6357 19.625C48.6357 19.625 48.5651 19.5622 48.4945 19.421C48.437 19.3086 48.3821 19.1438 48.3611 18.9163L50.5396 18.49L51.0051 17.9094C53.8139 17.8231 55.1634 17.6636 55.723 17.5747C55.9165 17.5433 56.0551 17.3785 56.0551 17.1824C56.0551 16.8659 56.0525 16.4004 56.0551 16.1834C56.0604 16.0448 56.1781 15.9009 56.3219 15.7754C56.3219 15.7754 56.3271 15.7754 56.3297 15.7806C57.1012 16.2304 57.1065 18.2154 57.1065 18.2154H57.1117Z" fill="black"/>
</svg>
