<svg width="10" height="13" viewBox="0 0 10 13" fill="none" xmlns="http://www.w3.org/2000/svg">
<path d="M9.8375 3.46455L7.0625 0.214613C7.00407 0.147279 6.93273 0.0934094 6.85308 0.056468C6.77342 0.0195266 6.68722 0.000331367 6.6 0.000116982H1.6C1.39234 -0.00245898 1.18623 0.0375303 0.993438 0.117801C0.800643 0.198073 0.62494 0.317053 0.476364 0.467949C0.327787 0.618844 0.209246 0.798699 0.127511 0.997242C0.0457763 1.19579 0.00244773 1.40913 0 1.62509V11.3749C0.00244773 11.5909 0.0457763 11.8042 0.127511 12.0028C0.209246 12.2013 0.327787 12.3812 0.476364 12.5321C0.62494 12.6829 0.800643 12.8019 0.993438 12.8822C1.18623 12.9625 1.39234 13.0025 1.6 12.9999H8.4C8.60766 13.0025 8.81377 12.9625 9.00656 12.8822C9.19936 12.8019 9.37506 12.6829 9.52364 12.5321C9.67221 12.3812 9.79075 12.2013 9.87249 12.0028C9.95422 11.8042 9.99755 11.5909 10 11.3749V3.90005C9.9996 3.73896 9.94169 3.58376 9.8375 3.46455ZM6.25 8.44996H5.625V9.09995C5.625 9.27234 5.55915 9.43767 5.44194 9.55956C5.32473 9.68146 5.16576 9.74994 5 9.74994C4.83424 9.74994 4.67527 9.68146 4.55806 9.55956C4.44085 9.43767 4.375 9.27234 4.375 9.09995V8.44996H3.75C3.58424 8.44996 3.42527 8.38148 3.30806 8.25959C3.19085 8.13769 3.125 7.97236 3.125 7.79998C3.125 7.62759 3.19085 7.46226 3.30806 7.34037C3.42527 7.21847 3.58424 7.14999 3.75 7.14999H4.375V6.5C4.375 6.32761 4.44085 6.16229 4.55806 6.04039C4.67527 5.91849 4.83424 5.85001 5 5.85001C5.16576 5.85001 5.32473 5.91849 5.44194 6.04039C5.55915 6.16229 5.625 6.32761 5.625 6.5V7.14999H6.25C6.41576 7.14999 6.57473 7.21847 6.69194 7.34037C6.80915 7.46226 6.875 7.62759 6.875 7.79998C6.875 7.97236 6.80915 8.13769 6.69194 8.25959C6.57473 8.38148 6.41576 8.44996 6.25 8.44996ZM6.69375 3.90005C6.5649 3.88685 6.44619 3.82155 6.36319 3.71821C6.28019 3.61487 6.23954 3.48176 6.25 3.34756V1.30009L8.5875 3.90005H6.69375Z" fill="#A13BCD"/>
</svg>
