<svg width="562" height="284" viewBox="0 0 562 284" fill="none" xmlns="http://www.w3.org/2000/svg">
<g clip-path="url(#clip0_369_968)">
<g filter="url(#filter0_f_369_968)">
<ellipse cx="243.349" cy="6.92739" rx="243.349" ry="6.92739" transform="matrix(-1 0 0 1 543.486 251.485)" fill="#100F0F" fill-opacity="0.72"/>
</g>
<path d="M78.7439 214.52C78.7688 214.904 78.8185 215.288 78.893 215.672C80.0362 221.719 86.945 228.647 86.945 228.647L110.769 236.431C109.958 232.827 109.51 229.075 109.51 225.209C109.51 198.578 130.079 176.911 155.362 176.911C180.644 176.911 201.222 198.578 201.222 225.209C201.222 229.145 200.758 232.958 199.921 236.614L417.291 234.921C416.678 231.789 416.355 228.534 416.355 225.209C416.355 198.578 436.924 176.911 462.214 176.911C487.505 176.911 508.066 198.578 508.066 225.209C508.066 228.133 507.809 230.995 507.329 233.769L549.635 231.143C559.517 230.916 561.025 222.085 561.025 222.085L556.726 218.464V199.904H559.733L558.233 183.377L549.85 175.454C547.489 163.909 543.554 160.192 543.554 160.192C504.769 134.59 432.359 128.046 432.359 128.046C398.122 105.507 368.764 92.2956 350.481 85.2624C337.823 80.3846 330.467 78.4736 330.467 78.4736C304.041 72.793 277.798 70.6901 253.452 70.6901C243.271 70.6901 233.413 71.0566 224.019 71.6848C208.984 72.6796 195.108 74.3463 182.906 76.2311L176.121 70.6901L167.962 70.6901L156.72 54.2329C156.389 53.7443 155.743 53.6308 155.279 53.9886C154.815 54.3376 154.707 55.0183 155.039 55.5069L170.613 78.2904C145.827 82.7755 130.485 87.5748 130.485 87.5748L133.012 93.7353C110.902 106.039 91.6337 134.992 91.6337 134.992C84.6835 155.777 89.745 167.758 89.745 167.758L88.0634 177.618C82.4717 178.403 80.9806 183.901 80.9806 183.901C80.9806 183.901 78.3712 208.237 78.7439 214.52Z" fill="white"/>
<path d="M462.214 185.079C483.256 185.079 500.312 203.045 500.312 225.209C500.312 247.373 483.256 265.34 462.214 265.34C441.173 265.34 424.117 247.373 424.117 225.209C424.117 203.045 441.173 185.079 462.214 185.079ZM486.851 230L476.14 229.703C475.411 232.216 474.077 234.45 472.329 236.23L477.44 246.152C482.261 242.251 485.708 236.544 486.851 230V230ZM462.214 209.878C463.606 209.878 464.948 210.096 466.224 210.48L471.832 200.846C468.866 199.546 465.619 198.822 462.214 198.822C459.274 198.822 456.457 199.363 453.839 200.34L458.959 210.27C460.011 210.017 461.096 209.869 462.223 209.869L462.214 209.878ZM478.459 205.148L472.859 214.773C474.516 216.64 475.717 218.944 476.322 221.501L487.05 221.797C486.229 215.166 483.065 209.293 478.459 205.148V205.148ZM465.47 240.148C464.418 240.401 463.333 240.55 462.206 240.55C460.814 240.55 459.472 240.331 458.197 239.947L452.589 249.581C455.554 250.881 458.801 251.605 462.206 251.605C465.147 251.605 467.963 251.064 470.581 250.078L465.462 240.148H465.47ZM445.961 245.279L451.561 235.654C449.905 233.787 448.703 231.483 448.099 228.927L437.371 228.63C438.191 235.262 441.356 241.134 445.961 245.279ZM448.289 220.724C449.018 218.211 450.352 215.977 452.1 214.197L446.989 204.276C442.159 208.176 438.721 213.883 437.578 220.427L448.289 220.724V220.724Z" fill="white"/>
<path d="M155.362 185.079C176.403 185.079 193.459 203.045 193.459 225.209C193.459 247.373 176.403 265.34 155.362 265.34C134.321 265.34 117.264 247.373 117.264 225.209C117.264 203.045 134.321 185.079 155.362 185.079V185.079ZM179.998 230L169.287 229.703C168.558 232.216 167.224 234.45 165.476 236.23L170.588 246.152C175.417 242.251 178.855 236.544 179.998 230ZM155.362 209.878C156.753 209.878 158.095 210.096 159.371 210.48L164.979 200.846C162.022 199.546 158.766 198.822 155.362 198.822C152.429 198.822 149.604 199.363 146.987 200.34L152.106 210.27C153.158 210.017 154.243 209.869 155.37 209.869L155.362 209.878ZM171.615 205.148L166.015 214.773C167.663 216.64 168.873 218.944 169.478 221.501L180.205 221.797C179.385 215.166 176.221 209.293 171.615 205.148V205.148ZM158.626 240.148C157.574 240.401 156.488 240.55 155.362 240.55C153.97 240.55 152.628 240.331 151.352 239.947L145.744 249.581C148.71 250.881 151.957 251.605 155.362 251.605C158.303 251.605 161.119 251.064 163.745 250.078L158.626 240.148V240.148ZM139.117 245.279L144.725 235.654C143.068 233.787 141.859 231.483 141.254 228.927L130.527 228.63C131.347 235.262 134.511 241.134 139.117 245.279V245.279ZM141.445 220.724C142.174 218.211 143.507 215.977 145.255 214.197L140.144 204.276C135.315 208.176 131.877 213.883 130.734 220.427L141.445 220.724V220.724Z" fill="white"/>
<path d="M154.981 254.162C140.112 254.162 128.058 241.465 128.058 225.803C128.058 210.14 140.112 197.443 154.981 197.443C169.85 197.443 181.903 210.14 181.903 225.803C181.903 241.465 169.85 254.162 154.981 254.162Z" fill="#FAC100"/>
<path d="M462.314 254.162C447.445 254.162 435.391 241.465 435.391 225.803C435.391 210.14 447.445 197.443 462.314 197.443C477.183 197.443 489.237 210.14 489.237 225.803C489.237 241.465 477.183 254.162 462.314 254.162Z" fill="#FAC100"/>
<path d="M253.741 141.842C253.766 138.098 254.992 134.739 257.253 131.824C259.465 128.979 262.274 127.095 265.687 126.266C267.368 125.856 269.066 125.795 270.789 125.995C272.877 126.24 274.84 126.885 276.638 128.02C277.243 128.404 277.806 128.84 278.369 129.285C279.372 130.07 280.589 130.079 281.567 129.25C283.596 127.522 285.908 126.475 288.492 126.074C291.963 125.541 295.26 126.091 298.309 127.932C301.506 129.852 303.759 132.662 305.126 136.257C305.739 137.854 306.071 139.52 306.145 141.239C306.17 141.789 306.187 142.348 306.187 142.906C306.187 148.918 306.178 154.939 306.187 160.951C306.187 162.382 305.259 163.334 303.975 163.299C302.508 163.255 301.034 163.29 299.568 163.29C298.275 163.29 297.447 162.426 297.447 161.056C297.447 154.765 297.464 148.482 297.447 142.191C297.439 139.712 296.486 137.723 294.49 136.335C291.988 134.59 288.84 134.835 286.521 136.999C285.27 138.159 284.549 139.634 284.383 141.388C284.342 141.842 284.325 142.304 284.325 142.766C284.325 151.964 284.325 160.663 284.317 169.852C284.317 171.274 283.489 172.138 282.138 172.138C280.689 172.138 279.247 172.138 277.798 172.138C276.688 172.138 275.909 171.501 275.693 170.402C275.66 170.227 275.66 170.053 275.66 169.869C275.66 165.14 275.66 169.782 275.66 165.053C275.66 160.41 275.66 146.894 275.66 142.252C275.66 139.355 273.97 136.615 271.27 135.611C268.694 134.66 266.432 135.245 264.444 137.156C263.193 138.36 262.597 139.904 262.497 141.667C262.472 142.06 262.456 142.444 262.456 142.836C262.456 143.526 262.456 144.232 262.456 144.957V145.253C262.439 154.608 262.539 151.623 262.539 160.978C262.539 162.426 261.702 163.299 260.319 163.299C258.844 163.299 257.378 163.299 255.903 163.299C254.768 163.299 253.981 162.644 253.766 161.536L253.741 141.833V141.842Z" fill="#4A00AD"/>
<path d="M299.668 167.836H304.224C304.779 167.836 305.292 168.072 305.682 168.491C306.063 168.91 306.27 169.477 306.253 170.053C306.03 177.252 303.197 181.763 298.268 186.798C293.33 191.841 286.836 193.91 279.968 193.91C273.101 193.91 266.607 191.841 261.669 186.798C256.732 181.754 253.899 177.234 253.684 170.027C253.667 169.451 253.874 168.901 254.255 168.491L254.28 168.465C254.661 168.063 255.175 167.836 255.713 167.836H260.245C260.369 167.836 260.501 167.871 260.642 167.915C261.429 168.203 261.959 168.971 262.092 169.835C262.15 170.192 262.191 170.559 262.224 170.917C263.094 180.306 270.79 185.55 279.977 185.55C289.164 185.55 296.652 180.358 297.58 171.074C297.622 170.646 297.688 170.219 297.771 169.8C297.945 168.936 298.5 168.194 299.287 167.906C299.427 167.854 299.56 167.828 299.684 167.828L299.668 167.836Z" fill="#FAC100"/>
<path d="M277.241 48.2608L278.035 48.3001C279.187 48.3571 280.077 49.3867 280.023 50.5998L279.286 67.126C279.231 68.3391 278.254 69.2763 277.102 69.2193L276.308 69.18C275.156 69.123 274.267 68.0934 274.321 66.8803L275.058 50.3541C275.112 49.141 276.089 48.2038 277.241 48.2608Z" fill="white"/>
</g>
<g clip-path="url(#clip1_369_968)">
<path d="M63.3932 199.547C54.308 194.473 45.0106 189.863 35.5091 185.725C32.3272 184.343 30.2072 189.506 33.382 190.889C42.8835 195.027 52.1879 199.636 61.2669 204.718C64.3062 206.421 66.4104 201.245 63.394 199.555L63.3932 199.547Z" fill="white"/>
<path d="M51.4954 206.508C35.9607 207.656 20.4189 208.804 4.88412 209.952C1.45846 210.202 2.10269 215.787 5.52129 215.538C21.056 214.391 36.5978 213.242 52.1326 212.095C55.5582 211.845 54.914 206.259 51.4954 206.508Z" fill="white"/>
<path d="M56.5754 220.511C49.682 218.568 42.534 219.295 36.0908 222.494C32.9983 224.031 34.9981 229.25 38.1109 227.702C43.8075 224.869 49.6977 224.362 55.7837 226.074C59.1009 227.008 59.8626 221.435 56.5754 220.511Z" fill="white"/>
</g>
<defs>
<filter id="filter0_f_369_968" x="52.7875" y="247.485" width="494.699" height="21.855" filterUnits="userSpaceOnUse" color-interpolation-filters="sRGB">
<feFlood flood-opacity="0" result="BackgroundImageFix"/>
<feBlend mode="normal" in="SourceGraphic" in2="BackgroundImageFix" result="shape"/>
<feGaussianBlur stdDeviation="2" result="effect1_foregroundBlur_369_968"/>
</filter>
<clipPath id="clip0_369_968">
<rect width="521.776" height="283.813" fill="white" transform="matrix(-1 0 0 1 561.025 0)"/>
</clipPath>
<clipPath id="clip1_369_968">
<rect width="63.0749" height="43.16" fill="white" transform="matrix(0.992167 -0.124922 0.11332 0.993559 0 189.811)"/>
</clipPath>
</defs>
</svg>
