<svg width="66" height="92" viewBox="0 0 66 92" fill="none" xmlns="http://www.w3.org/2000/svg">
<path d="M55.1404 12.4792C55.1182 9.54944 54.1068 6.91956 52.2373 4.64515C50.4068 2.41794 48.0888 0.94332 45.2664 0.296264C43.879 -0.0203211 42.4692 -0.0703083 41.0483 0.0852073C39.3209 0.274048 37.7021 0.78225 36.2116 1.67091C35.7128 1.96806 35.2448 2.31519 34.7767 2.66232C33.952 3.27605 32.9379 3.28439 32.1355 2.63733C30.4554 1.28212 28.5442 0.462888 26.4072 0.154634C23.5375 -0.261926 20.8155 0.168519 18.2885 1.60704C15.6472 3.11221 13.7833 5.30609 12.6521 8.11925C12.1479 9.37171 11.872 10.6742 11.8079 12.021C11.7884 12.4543 11.7717 12.8875 11.7717 13.3207C11.7717 18.0278 11.7801 22.7349 11.7717 27.4393C11.7717 28.5584 12.5407 29.3055 13.5994 29.2749C14.8142 29.2388 16.0289 29.2666 17.2437 29.2666C18.3107 29.2666 18.9961 28.589 18.9961 27.5198C18.9961 22.6016 18.9794 17.6807 18.9989 12.7625C19.0073 10.8269 19.7957 9.26896 21.4451 8.18035C23.5152 6.81403 26.1119 7.00565 28.0343 8.70244C29.0652 9.61331 29.667 10.763 29.8035 12.1377C29.8397 12.4959 29.8536 12.8569 29.8536 13.2152C29.8592 20.4078 29.8592 27.2143 29.862 34.4069C29.862 35.5178 30.5446 36.1926 31.6646 36.1926C32.8626 36.1926 34.0579 36.1926 35.2559 36.1926C36.1753 36.1926 36.8161 35.6927 36.9917 34.8346C37.0195 34.7013 37.0167 34.5597 37.0167 34.4208C37.0167 30.7218 37.0167 34.3514 37.0167 30.6524C37.0167 27.0172 37.0167 16.4477 37.0112 12.8125C37.0112 10.5464 38.407 8.40251 40.6443 7.61938C42.7729 6.87513 44.6451 7.33612 46.2862 8.82741C47.3226 9.77161 47.8157 10.9769 47.8965 12.3598C47.9133 12.6625 47.93 12.968 47.93 13.2735C47.93 13.815 47.93 14.3676 47.93 14.9286L47.9411 15.1619C47.9467 22.4795 47.8631 20.1412 47.8659 27.4615C47.8659 28.5918 48.5596 29.2777 49.6992 29.2777C50.9167 29.2777 52.1342 29.2777 53.3518 29.2777C54.2879 29.2777 54.9398 28.7695 55.1182 27.8947L55.1377 12.482L55.1404 12.4792Z" fill="#441879"/>
<path d="M17.2052 32.7607H13.4462C12.9903 32.7607 12.5621 32.9402 12.2452 33.2661C11.931 33.5892 11.7586 34.0338 11.7725 34.4839C11.956 40.0814 14.297 43.594 18.3618 47.5098C22.435 51.4339 27.7954 53.0411 33.4561 53.0411C39.1168 53.0411 44.4772 51.4311 48.5503 47.5098C52.6207 43.5885 54.9617 40.0731 55.1397 34.4618C55.1536 34.0172 54.984 33.5837 54.667 33.2689L54.6475 33.2495C54.3334 32.9375 53.9108 32.7635 53.4659 32.7635H49.7292C49.6291 32.7635 49.5179 32.7884 49.4039 32.827C48.7533 33.0535 48.3168 33.6472 48.2056 34.321C48.1611 34.6026 48.125 34.8843 48.0971 35.166C47.3798 42.4674 41.0352 46.5488 33.4533 46.5488C25.8714 46.5488 19.6991 42.5088 18.9318 35.2847C18.8956 34.9534 18.8456 34.622 18.7761 34.2961C18.6343 33.6278 18.1755 33.0479 17.525 32.8243C17.411 32.7856 17.2997 32.7607 17.1997 32.7607H17.2052Z" fill="#FA9F42"/>
<path d="M0.842626 70.228V59.8166C0.842626 59.3611 1.212 59.2334 1.67025 59.2334H1.77023C2.2257 59.2334 2.59786 59.3611 2.59786 59.8166V63.8517C2.59786 64.5294 3.35883 64.9043 3.91428 64.5155C4.95575 63.7879 6.15275 63.4074 7.50528 63.3574C9.42159 63.288 11.0796 63.9406 12.4571 65.3431C13.693 66.5789 14.3846 68.0146 14.5318 69.6643C14.7262 71.8443 13.8902 74.0188 12.2905 75.5101C11.0685 76.6487 9.59378 77.243 7.90243 77.3069C5.98612 77.3763 4.32809 76.6987 2.90058 75.2963C1.47584 73.8966 0.79819 72.2386 0.842626 70.3224V70.228ZM11.3573 73.8966C12.3155 72.8441 12.7821 71.6305 12.7599 70.2058C12.7376 68.8033 12.2211 67.612 11.2185 66.6066C10.2381 65.6013 9.04666 65.0876 7.61915 65.0876C6.19163 65.0876 5.09462 65.5791 4.13646 66.5817C3.1783 67.587 2.66451 68.7784 2.64229 70.1808C2.59508 71.6527 3.08665 72.9385 4.13646 74.0354C5.18904 75.1102 6.4277 75.6239 7.87465 75.5545C9.25495 75.4851 10.3992 74.9463 11.3573 73.8966Z" fill="#441879"/>
<path d="M65.1833 77.0039H64.9889C64.5334 77.0039 64.1613 76.6346 64.1613 76.1764V68.8253C64.1613 67.7978 63.8586 66.9091 63.2726 66.1843C62.6893 65.4595 61.895 65.0873 60.9369 65.0873C59.9787 65.0873 59.115 65.415 58.3901 66.0454C57.6875 66.6758 57.3376 67.4701 57.3376 68.4282V76.1764C57.3376 76.6318 56.9682 77.0039 56.5099 77.0039H56.2933C55.8378 77.0039 55.4657 76.6346 55.4657 76.1764V68.4282C55.4657 67.4701 55.1157 66.6758 54.3909 66.0454C53.691 65.415 52.8495 65.0873 51.8664 65.0873C50.8832 65.0873 50.1361 65.4622 49.5529 66.1843C48.9697 66.9091 48.6892 67.7728 48.6892 68.8253V76.1764C48.6892 76.6318 48.3198 77.0039 47.8615 77.0039H47.6699C47.2144 77.0039 46.8423 76.6346 46.8423 76.1764V69.0364C46.8423 67.3784 47.3089 66.0232 48.267 65.0179C49.1557 64.0598 50.3222 63.5238 51.7719 63.4044C53.38 63.2683 54.7158 63.8237 55.7767 65.0429C56.1045 65.4206 56.6905 65.4206 57.0182 65.0429C58.0791 63.8237 59.415 63.2683 61.023 63.4044C62.4727 63.521 63.6392 64.0598 64.5501 65.0179C65.5083 66.0232 65.9998 67.3784 65.9998 69.0364V76.1764C65.9998 76.6318 65.6305 77.0039 65.1722 77.0039H65.1833Z" fill="#441879"/>
<path d="M44.6847 70.4C45.1901 70.4 45.5873 70.8277 45.5539 71.3304C45.4956 72.2246 45.3206 72.7856 44.7735 73.7659C44.057 75.0434 43.0544 75.9904 41.7519 76.6374C40.1105 77.4456 38.3692 77.5511 36.5112 76.9318C34.6448 76.2903 33.2923 75.1434 32.4508 73.4382C31.5482 71.6609 31.4371 69.7919 32.1314 67.8729C32.8369 65.9233 34.0894 64.5737 35.9391 63.8183C37.5971 63.1573 39.3079 63.1434 41.0798 63.8072C42.7989 64.4681 44.0181 65.5484 44.7346 67.0508L44.7763 67.1342C44.9818 67.5674 44.7985 68.0839 44.368 68.2922L35.2781 72.6328C34.7476 72.8856 34.6143 73.5882 35.0198 74.0131C35.6363 74.6601 36.3945 75.1128 37.2944 75.3572C38.5775 75.7043 39.8272 75.6016 41.0464 74.9962C42.71 74.1797 43.6293 72.8967 43.8265 71.1526C43.8765 70.7194 44.2486 70.3973 44.6819 70.3945L44.6847 70.4ZM41.7852 67.709C42.3601 67.4341 42.449 66.6593 41.9602 66.251C41.3769 65.7623 40.7104 65.4207 39.9661 65.2263C38.808 64.9208 37.6415 65.0374 36.4667 65.5734C35.292 66.1094 34.4477 66.9536 33.9144 68.0645C33.5673 68.7893 33.409 69.5447 33.4284 70.3278C33.4451 70.9638 34.0977 71.3804 34.6726 71.1054L41.7852 67.709V67.709Z" fill="#441879"/>
<path d="M29.0902 70.4C29.5929 70.4 29.9956 70.8194 29.9622 71.322C29.9039 72.2052 29.7262 72.7911 29.179 73.7659C28.4625 75.0434 27.4599 75.9904 26.1574 76.6374C24.516 77.4456 22.7747 77.5511 20.9167 76.9318C19.0504 76.2903 17.6978 75.1434 16.8563 73.4382C15.9537 71.6609 15.8426 69.7919 16.5369 67.8729C17.2424 65.9233 18.4949 64.5737 20.3446 63.8183C22.0026 63.1573 23.7134 63.1434 25.4853 63.8072C27.2044 64.4681 28.4236 65.5484 29.1402 67.0508L29.179 67.1342C29.3846 67.5674 29.2013 68.0867 28.768 68.2922L19.6808 72.6328C19.1503 72.8856 19.0143 73.5882 19.4225 74.0158C20.0363 74.6601 20.7945 75.1156 21.6971 75.36C22.9802 75.7071 24.23 75.6044 25.4492 74.999C27.1128 74.1825 28.032 72.8995 28.2292 71.1582C28.2792 70.725 28.6514 70.4028 29.0874 70.4H29.0902ZM26.1879 67.709C26.7628 67.4341 26.8517 66.6593 26.3629 66.2483C25.7797 65.7595 25.1159 65.4207 24.3688 65.2235C23.2107 64.918 22.0443 65.0347 20.8695 65.5706C19.6947 66.1066 18.8504 66.9509 18.3172 68.0617C17.97 68.7865 17.8117 69.5391 17.8311 70.3251C17.8478 70.961 18.5005 71.3776 19.0754 71.1054L26.1852 67.709H26.1879Z" fill="#441879"/>
<path d="M13.4043 90.6759H15.7288C15.7455 90.6759 16.1538 90.7092 16.2232 90.251L16.2926 89.8511C16.3454 89.5734 16.2676 89.4179 15.9288 89.4179H14.7151C13.8986 89.4179 13.457 89.0957 13.5959 88.2293L13.6653 87.796C13.7875 87.049 14.1514 86.6519 15.0456 86.6519C15.6177 86.6519 16.9286 86.7296 17.3452 86.8157L17.2508 87.3795H15.0401C14.5541 87.3795 14.4846 87.6655 14.4596 87.8405L14.3985 88.2237C14.3124 88.743 14.6068 88.6653 14.8318 88.6653H16.0732C16.8536 88.6653 17.2091 89.1763 17.1064 89.8289L17.0286 90.376C16.8814 91.3202 16.2232 91.4174 15.7177 91.4174C15.1706 91.4174 13.6348 91.3119 13.3237 91.2341L13.4098 90.6787L13.4043 90.6759Z" fill="#FA9F42"/>
<path d="M18.4006 86.7297H19.0004L19.1143 87.2684C19.6698 86.9657 20.078 86.6797 20.7973 86.6797C21.3278 86.6797 21.7694 86.9741 21.8999 87.3906C22.4026 87.0352 23.0358 86.6797 23.8523 86.6797C24.6688 86.6797 25.1632 87.2962 25.0243 88.1988L24.5216 91.3397H23.7218L24.2245 88.1904C24.3022 87.7044 24.0162 87.4101 23.6357 87.4101C22.9858 87.4101 22.5859 87.5156 22.0221 87.86C22.0221 87.8683 21.9777 88.1988 21.9693 88.2154L21.475 91.3369H20.6779L21.1723 88.1877C21.25 87.7017 20.964 87.4073 20.5835 87.4073C19.9503 87.4073 19.6559 87.5628 19.0227 87.8683L18.4755 91.3369H17.6785L18.4061 86.7297H18.4006Z" fill="#FA9F42"/>
<path d="M27.5266 86.6437C28.1515 86.5743 29.2957 86.7576 29.7373 87.1825L29.1291 91.3371H28.5403L28.4181 90.8261C28.1654 91.026 27.4988 91.3982 26.8656 91.3982C25.8936 91.3982 25.2159 90.9205 25.5631 88.8821C25.8936 86.9909 26.7851 86.7215 27.5238 86.6437H27.5266ZM26.9878 90.6511C27.6044 90.6511 27.9682 90.4873 28.4792 90.2262L28.8958 87.4935C28.4459 87.363 27.8904 87.3019 27.5599 87.3713C27.0406 87.4658 26.5795 87.5879 26.3379 89.107C26.1657 90.2179 26.3463 90.6511 26.9878 90.6511V90.6511Z" fill="#FA9F42"/>
<path d="M30.7289 86.7295H31.3371L31.4315 87.3099C31.9592 87.0072 32.473 86.6768 33.1479 86.6768C33.3811 86.6768 33.6422 86.6934 33.7477 86.7462L33.6172 87.5266C33.5034 87.5016 33.2256 87.4821 32.9757 87.4821C32.3341 87.4821 31.9509 87.6293 31.3288 87.9848L30.7983 91.334H30.0012L30.7289 86.7268V86.7295Z" fill="#FA9F42"/>
<path d="M34.0422 86.9048L34.9004 86.7215L35.2642 85.4385H35.8975L35.6975 86.7215H36.9556L36.8334 87.4408H35.5753L35.2281 89.643C35.1059 90.4678 35.2448 90.5373 35.5586 90.615C35.5586 90.615 36.1585 90.7789 36.1752 90.7789L36.0974 91.3343H35.4364C34.6116 91.3343 34.2478 90.8316 34.4311 89.6958L34.7782 87.4408H33.9534L34.0395 86.902L34.0422 86.9048Z" fill="#FA9F42"/>
<path d="M39.4799 86.9048L40.3381 86.7215L40.7019 85.4385H41.3351L41.1351 86.7215H42.3932L42.271 87.4408H41.0129L40.6658 89.643C40.5436 90.4678 40.6824 90.5373 40.9963 90.615C40.9963 90.615 41.5962 90.7789 41.6128 90.7789L41.5351 91.3343H40.8769C40.052 91.3343 39.6882 90.8316 39.8715 89.6958L40.2186 87.4408H39.3938L39.4799 86.902V86.9048Z" fill="#FA9F42"/>
<path d="M44.5983 86.6437C45.2232 86.5743 46.3674 86.7576 46.809 87.1825L46.2008 91.3371H45.612L45.4898 90.8261C45.237 91.026 44.5705 91.3982 43.9373 91.3982C42.9652 91.3982 42.2904 90.9205 42.6375 88.8821C42.968 86.9909 43.8595 86.7215 44.5983 86.6437ZM44.0595 90.6511C44.676 90.6511 45.0399 90.4873 45.5509 90.2262L45.9675 87.4935C45.5175 87.363 44.9621 87.3019 44.6316 87.3713C44.1122 87.4658 43.6512 87.5879 43.4096 89.107C43.2374 90.2179 43.4179 90.6511 44.0595 90.6511V90.6511Z" fill="#FA9F42"/>
<path d="M48.7978 88.9928L47.5064 86.7295H48.4423L49.3533 88.3958L50.7752 86.7295H51.7806L49.7588 89.1067L51.0169 91.3367H50.0976L49.195 89.7149L47.8147 91.3367H46.7732L48.795 88.9956L48.7978 88.9928Z" fill="#FA9F42"/>
<path d="M52.4498 86.7296H53.2469L52.5192 91.3368H51.7222L52.4498 86.7296ZM52.5637 85.4549C52.5803 85.3244 52.6664 85.2383 52.8053 85.2383H53.3691C53.4996 85.2383 53.5524 85.3327 53.5329 85.4549L53.4552 86.0103C53.4385 86.1408 53.3413 86.2103 53.2219 86.2103H52.6581C52.5359 86.2103 52.4665 86.1325 52.4859 86.0103L52.5637 85.4549Z" fill="#FA9F42"/>
</svg>
