<svg width="13" height="13" viewBox="0 0 13 13" fill="none" xmlns="http://www.w3.org/2000/svg">
<path d="M6.5 0C10.0945 0 13 2.9055 13 6.5C13 10.0945 10.0945 13 6.5 13C2.9055 13 0 10.0945 0 6.5C0 2.9055 2.9055 0 6.5 0ZM6.5 11.7C9.3665 11.7 11.7 9.3665 11.7 6.5C11.7 3.6335 9.3665 1.3 6.5 1.3C3.6335 1.3 1.3 3.6335 1.3 6.5C1.3 9.3665 3.6335 11.7 6.5 11.7ZM4.1665 3.25L6.5 5.5835L8.8335 3.25L9.75 4.1665L7.4165 6.5L9.75 8.8335L8.8335 9.75L6.5 7.4165L4.1665 9.75L3.25 8.8335L5.5835 6.5L3.25 4.1665L4.1665 3.25Z" fill="#3D3751"/>
</svg>
