<svg width="28" height="28" viewBox="0 0 28 28" fill="none" xmlns="http://www.w3.org/2000/svg">
<path d="M9.95354 3.42688C12.5025 1.9458 15.6357 1.97169 18.1608 3.49469C20.661 5.04872 22.1806 7.82219 22.1665 10.8057C22.1083 13.7696 20.4788 16.5557 18.442 18.7094C17.2665 19.9581 15.9514 21.0623 14.5236 21.9994C14.3766 22.0844 14.2155 22.1413 14.0484 22.1673C13.8875 22.1605 13.7308 22.1129 13.5925 22.029C11.4128 20.621 9.50054 18.8237 7.9477 16.7236C6.64833 14.9706 5.91012 12.8527 5.83331 10.6575L5.83913 10.3381C5.94522 7.47274 7.49557 4.85507 9.95354 3.42688ZM15.0585 8.20789C14.0222 7.76743 12.8275 8.00673 12.0322 8.81406C11.2368 9.62139 10.9977 10.8375 11.4265 11.8946C11.8553 12.9516 12.8674 13.6411 13.9902 13.6411C14.7258 13.6464 15.4329 13.3518 15.9539 12.8229C16.475 12.294 16.7667 11.5747 16.7641 10.8254C16.768 9.68169 16.0947 8.64835 15.0585 8.20789Z" fill="#A13BCD"/>
<path opacity="0.4" d="M14 25.6673C17.2216 25.6673 19.8333 25.145 19.8333 24.5007C19.8333 23.8563 17.2216 23.334 14 23.334C10.7783 23.334 8.16663 23.8563 8.16663 24.5007C8.16663 25.145 10.7783 25.6673 14 25.6673Z" fill="#A13BCD"/>
</svg>
