<?xml version="1.0" encoding="UTF-8"?>
<svg id="Calque_2" data-name="Calque 2" xmlns="http://www.w3.org/2000/svg" viewBox="0 0 754.25 735.41">
  <defs>
    <style>
      .cls-1 {
        fill: #12100f;
      }
    </style>
  </defs>
  <g id="Calque_1-2" data-name="Calque 1">
    <g>
      <g>
        <polygon class="cls-1" points="163.41 672.62 205.77 672.62 205.77 733.27 222.44 733.27 222.44 672.62 264.8 672.62 264.8 658.49 163.41 658.49 163.41 672.62"/>
        <rect class="cls-1" x="127.65" y="658.49" width="16.67" height="74.77"/>
        <path class="cls-1" d="M715.93,658.85h-60.99v74.65h16.67v-60.54h40.39c15.74,0,25.58,5.79,25.58,23.38v37.16h16.67v-39.24c0-19.9-11.46-35.42-38.31-35.42"/>
        <path class="cls-1" d="M595.2,649.58h24.53c2.78,0,5.21-2.43,5.21-5.33s-2.43-5.44-5.21-5.44h-24.53c-3.01,0-5.45,2.43-5.45,5.44s2.44,5.33,5.45,5.33"/>
        <path class="cls-1" d="M355.78,703.96c23.08-.54,30.66-6.7,30.66-22.42,0-14.24-10.18-22.69-27.42-22.69h-75.12v74.65h16.66v-60.54h58.56c6.6,0,10.07,2.99,10.07,8.92,0,5.21-1.65,10.26-12.39,9.92h-42.12v4.31l51.39,37.16h24.19l-42.73-29.31h8.24Z"/>
        <path class="cls-1" d="M477.98,657.25c-5.07-.21-10.26-.32-15.4-.32-8.77,0-14.46,.32-14.51,.32h-.28c-12.12,.39-22.46,4.43-29.87,11.69-7.11,6.96-11.03,16.61-11.03,27.18v.11c0,22.68,16.48,38.3,41.01,38.87,5.08,.22,10.26,.32,15.41,.32,8.76,0,14.46-.31,14.51-.32h.27c12.12-.39,22.46-4.43,29.88-11.69,7.11-6.95,11.03-16.61,11.03-27.18v-.11c0-22.22-16.49-37.84-41.02-38.87m23.25,38.72c-.05,14.4-9.42,23.74-24.44,24.36h-.34l-.32,.02c-.92,.07-4.44,.32-12.06,.32-5.09,0-9.98-.11-14.51-.33h-.26c-15.19-.4-24.63-9.74-24.63-24.38s9.37-23.86,24.44-24.5h.64c.05-.02,6.32-.33,14.92-.33,4.84,0,6.9,.1,11.02,.29l.64,.03c15.59,.72,24.9,9.84,24.9,24.39v.13Z"/>
        <polygon class="cls-1" points="540.68 733.5 631.65 733.5 631.65 719.38 557.34 719.38 557.34 702.6 622.51 702.6 622.51 689.07 557.34 689.07 557.34 672.96 631.65 672.96 631.65 658.85 540.68 658.85 540.68 733.5"/>
        <path class="cls-1" d="M552.61,649.58h24.42c2.9,0,5.33-2.43,5.33-5.33s-2.43-5.44-5.33-5.44h-24.42c-3.01,0-5.45,2.43-5.45,5.44s2.44,5.33,5.45,5.33"/>
        <path class="cls-1" d="M40.35,659.08h-.25c-11.89,.37-22.02,4.2-29.3,11.09-6.97,6.6-10.8,15.76-10.8,25.79v.11c0,21.52,16.16,36.34,40.21,36.88,6.77,.28,27.18,.31,35.64,.31,10.94,0,21.39-.05,24.49-.11v-14.28c-4.66,.05-40.1,.11-44.28,.11-4.94,0-9.9-.1-14.36-.3-14.74-.35-24.28-9.23-24.28-22.61s9.41-22.41,23.97-22.97h.33l.31-.02c.05,0,6.16-.29,14.61-.29,2.36,0,38.76,.05,43.7,.13v-14.03c-3.28-.07-8.4-.12-15.23-.12-18.74,0-44.5,.3-44.76,.31"/>
      </g>
      <path class="cls-1" d="M377.12,0c-123.66,0-224.26,124.85-224.26,278.31s100.6,278.31,224.26,278.31,224.26-124.85,224.26-278.31S500.78,0,377.12,0ZM194.19,374.64l-.21-.65c-7.43-22.98-9.64-43.12-9.66-43.32l-.03-.28,.23-.17,192.6-142.42,192.84,142.59-.03,.28c-.02,.2-2.23,20.34-9.66,43.32l-.21,.65-.55-.41v.03s-182.39-135.27-182.39-135.27l-182.91,135.67v-.02Zm182.92,155.72c-64.23,0-124.36-39.78-161.58-106.61l-.44-.86,162.02-119.81,162.04,119.82-.42,.77s0,0,0,0c-37.21,66.88-97.34,106.68-161.62,106.68Zm0-407.72l-197.82,146.73,.03-1.02c2-65.1,23.47-125.97,60.45-171.39,37.11-45.59,85.89-70.7,137.35-70.7s100.23,25.11,137.35,70.7c36.98,45.43,58.45,106.3,60.45,171.39l.03,1.02-.82-.61L377.12,122.64Z"/>
    </g>
  </g>
</svg>