<?xml version="1.0" encoding="UTF-8"?>
<svg id="Calque_2" data-name="Calque 2" xmlns="http://www.w3.org/2000/svg" viewBox="0 0 660.65 726.94">
  <defs>
    <style>
      .cls-1 {
        fill: #fff;
      }

      .cls-2 {
        fill: #010101;
      }
    </style>
  </defs>
  <g id="Calque_1-2" data-name="Calque 1">
    <g>
      <path class="cls-2" d="M323.14,723.6c-94.51-43.95-176.6-115.97-231.15-202.78C37.47,434.05,8.78,333.11,1.71,203.15c-2.29-42.03-2.29-94.58,0-160.63l.48-13.93,13.75-2.3C120.46,8.85,226.23,0,330.33,0s209.87,8.85,314.38,26.3l13.75,2.3,.48,13.93c2.29,66.05,2.29,118.59,0,160.63-7.06,129.96-35.75,230.9-90.28,317.67-54.55,86.81-136.64,158.82-231.14,202.78l-7.19,3.34-7.19-3.34Z"/>
      <g>
        <g>
          <path class="cls-1" d="M184.19,439.69c-2.03,.38-3.11-.69-3.4-2.05-.8-3.69-2.87-16.32-3.52-20.04-.36-2.05,.27-3.17,2.11-3.76,9.01-2.91,24.18-8.04,36.38-12.34,3.14-1.11,4.12-2.35,5.88-5.17,5.11-8.15,17.65-30.29,23.58-41.77,.84-1.63,.77-3.57-.17-5.15l-2.7-4.5c-.93-1.54-3.1-3.17-4.84-3.61-12.41-3.18-28.83-7.2-36.58-9.06-1.72-.41-3.52-.35-5.21,.19l-1.42,.45c11.89,4.05,22.01,7.68,34.85,12.56,1.11,.42,2.3,1.7,2.65,2.83l1.18,3.87c.48,1.57,.33,3.26-.42,4.73-5.45,10.68-14.9,24.83-22.44,33.93-1.13,1.37-2.59,2.41-4.25,3.04-7.29,2.73-20.55,7.11-26.33,8.6-1.15,.3-1.72,.16-2.67-.5-4.2-2.94-12.88-11.08-12.88-11.08,0,0-.73,8.85-.78,12.81,0,.44,.08,.87,.25,1.28,1.48,3.46,4.09,10.09,5.18,13.46,.28,.87,.51,1.64,.73,2.53,1.46,5.82,5.49,22.94,5.49,22.94,.59,2.59,2.05,3.5,4.34,3,2.95-.64,12.38-3.29,16.24-4.58,.6-.2,1.12-.51,1.59-.94,2.49-2.28,6.68-6.14,6.68-6.14,0,0-14.17,3.46-19.5,4.47Z"/>
          <path class="cls-1" d="M205.57,387.14c4.82-5.82,11.19-15.14,16.52-23.92l-39.46,32.54c6.47-1.97,15.24-4.94,20.51-6.91,.96-.36,1.79-.95,2.42-1.71Z"/>
          <path class="cls-1" d="M206.49,256.06l-7.06,.6c-.56,.05-1.01,.5-1.06,1.06l-.66,8.37c-.03,.44,.36,.78,.79,.69l7.13-1.58c.86-.19,1.89-.98,2.24-1.79,.87-2,1.11-4.33,.21-6.41-.27-.62-.91-1.01-1.59-.95Z"/>
          <path class="cls-1" d="M137.75,360.86l10.7,12.56,3.15-21.72c-6.2,.95-11.89,4.93-13.85,9.15Z"/>
          <path class="cls-1" d="M487.03,358.58c-4.37-7.76-26.11-37.19-53.33-65.58-.99-1.03-2.18-1.86-3.49-2.43l-4.44-1.93s7.92,34.61,11.46,53.54c.45,2.41,1.63,4.62,3.37,6.34,12.16,12.05,20.18,21.43,26.9,31.35,2.92,4.31,4.6,9.32,4.95,14.52,1.85,27.49,.96,65.27-2.11,86.32-.62,4.27-1.66,5.77-4.44,8.03-26.33,21.3-69.89,58.79-88.58,77.29-1.97,1.95-2.69,2.82-3.9,4.64-2.45,3.71-5.08,9.2-5.08,9.2,0,0-4.44-13.61-5.43-21.03-.46-3.47-.5-4.42,0-7.95,2.25-15.89,13.36-52.54,15.18-58.03,.16-.47,.23-.97,.23-1.47v-3.44c-4.02,8.4-24.69,54.9-29.07,70.89-.92,3.37-.77,4.69,.11,7.21,2.68,7.71,10.49,26.79,14.08,34.61,0,0,8.49-15.92,13.42-23.93,1.38-2.24,3.06-4.26,5-6.05,14.7-13.6,67.56-57.73,92.25-76.3,3.31-2.49,4.32-4.25,5.22-7.7,9.99-38.15,14.19-82.01,9.3-123.41-.2-1.7-.77-3.19-1.61-4.69Z"/>
          <path class="cls-1" d="M378.76,247c1.01-1.75,1.39-3.79,1.05-5.79-.82-4.79-2.07-10.44-3.08-14.7-.19-.8-.73-1.46-1.47-1.82l-7.44-3.56c-.98-.47-2.08-.62-3.15-.43-17.97,3.17-36.88,6.91-51.18,10.16-1.17,.27-2.17,1.01-2.77,2.05l-4.45,7.7c-.34,.6,0,1.35,.67,1.48,3.74,.7,11.39,2.07,14.01,2.46,1.61,.24,2.15,.19,3.48-.35,9.06-3.76,23.87-9.51,34.89-13.51,.87-.32,1.81-.33,2.7-.05l5.06,1.62c.74,.24,1.35,.74,1.74,1.41,1.38,2.44,2.83,5.11,3.69,6.88,.61,1.25,.27,2.93-.78,4.45-3.73,5.41-10.14,13.94-14.53,19.27-.97,1.17-1.29,2.75-.87,4.21,2.58,8.91,8.19,27.23,11.18,35.99,.37,1.08,.91,1.89,1.75,2.66l4.22,3.84s-6.7-31-8.3-39.87c-.25-1.39-.16-2.79,.64-3.96,3.54-5.17,9.87-14.81,12.95-20.16Z"/>
          <path class="cls-1" d="M539.38,272.49c-.52-2.34-1.28-3.34-3.23-4.78-20.11-14.97-56.3-36.21-77.83-45.25-2.78-1.17-5.87-1.23-8.7-.2-10.26,3.76-26.68,10.67-43.73,18.68,0,0,7.51,.56,11.1,.98,1.83,.21,2.54,.17,4.32-.31,5.23-1.42,14.52-3.73,21.84-5.38,3.57-.81,7.31-.01,10.24,2.17,10.03,7.47,26.14,20.45,36.45,29.11,1.79,1.51,3.83,2.72,6,3.59,15.72,6.3,22.62,9.45,26.15,11.26,2.47,1.27,4.25,3.55,4.94,6.23,4.08,15.77,6.82,39.94,8.24,57.37,.26,3.23-.17,6.47-1.25,9.53-4.43,12.52-15.43,33.31-21.58,43.25-.55,.89-1.13,1.58-2.2,2.5-2.18,1.88-6.02,4.98-8.83,7.15-.55,.42-.87,1.07-.88,1.76-.06,6.76-1.36,19.83-1.36,19.83,15.09-18.92,29.44-43.44,42.18-69.5,1.05-2.14,1.45-3.35,1.66-5.36,2.98-27.95,1.18-61.15-3.54-82.62Z"/>
          <path class="cls-1" d="M338.99,610.87c-3.55-7.98-22.03-51.69-27.02-68.42-1.77-5.92-1.99-7.52-1.31-14.19,4.2-41.11,18.97-106.52,21.29-115.49,.49-1.89,.42-2.41,.08-4.34-.6-3.41-2.58-15.14-2.58-15.14-6.68,15.47-30.46,79.38-39.24,117-1.65,7.09-1.37,8.99,.12,12.85,12.63,32.74,44.81,91.86,50.73,100.8l-1.33-10.3c-.12-.95-.36-1.88-.75-2.76Z"/>
          <path class="cls-1" d="M310.32,613.42s-7.01-4.55-9.17-5.98c-2.23-1.48-3.01-2.13-4.06-3.09-14.63-13.25-65.96-76.33-81.35-103.75-2.58-4.6-3.33-6.77-3.08-11.4,.29-5.28,1.31-15.49,2.35-21.48,.65-3.73,1.5-6.19,4.67-9.07,8.72-7.92,22.82-22.08,30.18-29.57,3.22-3.28,4.84-5.37,6.55-8.58,6.75-12.65,27.39-57.48,34.31-75.91,1.22-3.26,1.3-4.18,.83-7.58-1.32-9.65-9.03-34.59-9.03-34.59l-.66,8.34c-.05,.58-.02,1.15,.08,1.72,.61,3.61,2.96,17.9,2.88,25.25-.03,2.53-.15,3.46-1.51,6.14-10.36,20.38-50.81,74.76-76.38,104.18-2.88,3.31-3.7,5.51-4.49,9.26-1.32,6.22-2.82,20.4-3.78,31.68-.52,6.06-.12,8.13,3.73,14.53,15.43,25.64,67.91,87.04,85.03,101.26,1.13,.94,2.34,1.75,3.63,2.45,6.02,3.25,22.49,11.4,22.49,11.4l-2.54-4.46c-.17-.3-.41-.55-.69-.75Z"/>
          <path class="cls-1" d="M234.08,247.65l32.61-10.2c1.92-.58,3.54-1.89,4.51-3.65l17.39-29.95c.41-.71-.11-1.6-.93-1.59l-14.86,.2c-1.28,.02-2.93,.28-4.14,.68-12.92,4.31-31.36,12.51-41.74,17.96-1.17,.61-2.26,1.61-3.1,2.64l-15.7,19.33c-.52,.63-1.18,1.13-1.93,1.45l-10.17,4.32c-.49,.21-.88,.59-1.11,1.07l-.48,1.02s21.49-.68,28.72-1.23c3.95-.3,7.14-.91,10.93-2.06Z"/>
          <path class="cls-1" d="M293.82,177.06c41.07-3.09,88.25-2.22,99.69-1.94,1.71,.04,3.4,.33,5.02,.87l8.38,2.8c-20.61,1.08-70.4,5.52-90.55,8.99l7.1,1.11c.5,.08,1,.1,1.51,.07,14.91-.92,44.09-1.86,56.9-2.05,3.12-.05,4.75,.24,7.94,1.46,7.46,2.85,22.43,9.64,28.6,12.77,3.23,1.64,5.49,2.19,8.8,2.33,6.7,.28,16.94,.99,24.53,1.79,2.06,.22,4.05,.81,5.9,1.74,15.59,7.84,34.17,18.98,46.9,27.53,.75,.5,1.57,.84,2.45,1.02l6.29,1.24s-20.19-20.64-28.14-27.66c-1.15-1.01-2.4-1.9-3.72-2.66-30.07-17.2-57.11-31.22-72.35-37.63-2.44-1.03-5.02-1.65-7.66-1.85-46.52-3.52-95.22-2.66-131.2,.5-2.57,.23-4.62,1.47-5.84,3.24-1.4,2.04-3.7,5.72-5.8,9.12-1.02,1.66-2.28,3.15-3.75,4.44-6.49,5.68-17.39,14.86-24.29,20.06-.6,.45-.89,.68-1.37,1-2.87,1.98-12.42,8.27-14.16,9.4-.66,.43-.81,.55-1.29,1.17-.56,.71-3.42,4.39-3.42,4.39,28.65-16.11,65.14-36.31,77.63-41.8,1.87-.82,3.84-1.31,5.87-1.46Z"/>
          <path class="cls-1" d="M160.09,267.93c-.35,.48-.8,.88-1.28,1.23-25.5,18.19-39.77,29.78-45.43,34.54-2.3,2.25-4.5,4.45-6.51,6.53-1.8,1.86-2.22,2.56-2.34,4.04-.1,1.25-.19,2.92-.18,3.88,0,.54,.14,.96,.44,1.41,.36,.54,2.37,2.83,2.85,3.3,.22,.22,.55,.3,.81,.12,3.77-2.65,9.07-6.59,13.87-10.25,.38-.29,1.09-1.01,1.35-1.47,.81-1.39,1.88-3.41,2.48-4.69,.4-.85,.67-1.11,1.64-1.73,.97-.61,3.87-2.43,3.87-2.43,0,0-2.17,8.92-3.73,12.01-.54,1.06-1.04,1.8-1.45,2.23-3.76,3.91-10.57,11.52-13.96,15.7-1.14,1.4-.75,3.14,.17,4.51,3.13,4.64,9.63,12.64,13.59,16.82,1.22,1.29,1.78,1.82,2.89,2.46,1.63,.93,2.78,1.3,2.78,1.3,0,0,3.26-15.63,4.64-20.49,.47-1.65,1.5-2.96,3.56-3.48,16.72-4.15,52.82-10.15,52.82-10.15-3.8-4.54-16.49-17.61-20.33-20.91-1.16-.99-2.23-1.49-3.75-1.66-4.66-.54-19.96-1.65-19.96-1.65,0,0,1.32-1.46,2.31-2.47,.91-.93,1.44-1.28,2.67-1.71,18.74-6.49,43.74-15.95,58.36-22.04,3.17-1.32,4.69-2.26,7.22-4.88,1.1-1.14,3.33-3.63,4.6-5.15,.26-.31,.4-.54,.47-.93,.08-.45,.19-1.28,.19-1.28,0,0-6.24,4.68-8.7,6.4-2.27,1.58-3.73,2.31-6.4,3-5.15,1.34-14.82,3.64-20.57,4.92-1.57,.35-2.33,.36-3.75-.16-.92-.34-2.68-1.03-3.73-1.52-1.13-.53-1.65-.6-2.87-.33-5.1,1.15-19.02,4.58-19.02,4.58,0,0,6.41-5.71,6.89-6.09,.61-.47,.89-.62,1.92-1.03,4.82-1.93,10.78-4.08,15.8-6.12,1.15-.47,1.64-1.03,1.73-2.16,.32-3.87,1.41-10.84,2.08-14.51,.19-1.04,.52-1.62,1.35-2.27,2.93-2.32,13.76-10.62,16.34-12.52,.17-.16,.33-.31,.49-.47l2.92-3.6c-7.7,4.48-21.46,12.64-28.56,17.11-3.05,1.92-4.54,2.95-7.54,5.32-.33,.26-.63,.57-.89,.9-1.88,2.35-9.48,12.21-12.16,15.83Z"/>
        </g>
        <g>
          <path class="cls-1" d="M148.64,125.7v-43.96c18.68-1.65,37.37-3.05,56.07-4.2v7.19c-16.31,1-32.61,2.19-48.89,3.57v10.92c14.41-1.23,28.84-2.3,43.27-3.22v7.19c-14.43,.92-28.86,2-43.27,3.22v11.47c16.29-1.39,32.59-2.58,48.89-3.57v7.19c-18.7,1.14-37.4,2.54-56.07,4.2Z"/>
          <path class="cls-1" d="M72.31,133.9v-43.96c14.78-1.87,29.57-3.57,44.38-5.12,2.57-.27,4.65-.18,6.38,.26,1.87,.48,3.38,1.3,4.48,2.43,1.09,1.12,1.85,2.52,2.26,4.16,.33,1.37,.5,2.87,.5,4.46v5.13c0,1.59-.17,3.12-.51,4.53-.41,1.7-1.18,3.24-2.28,4.56-1.11,1.32-2.63,2.41-4.51,3.24-1.72,.75-3.79,1.25-6.33,1.52-12.42,1.3-24.82,2.7-37.22,4.23v13.67c-2.39,.29-4.77,.59-7.16,.89Zm7.16-21.75c13.16-1.62,26.33-3.1,39.5-4.46,2.26-.23,4.1-2.26,4.1-4.52v-7.71c0-2.26-1.84-3.92-4.1-3.68-13.18,1.36-26.35,2.85-39.5,4.46v15.91Z"/>
          <path class="cls-1" d="M470.17,122.44c-2.78-.19-5.03-.52-6.88-1-2.11-.56-3.85-1.4-5.17-2.51-1.46-1.22-2.48-2.76-3.02-4.57-.45-1.49-.66-3.16-.66-5.12,0-6.53,0-13.06,0-19.58,0-1.96,.22-3.61,.66-5.04,.55-1.75,1.56-3.16,3.03-4.2,1.32-.94,3.06-1.57,5.17-1.85,1.85-.25,4.1-.28,6.88-.09,9.74,.66,19.47,1.4,29.2,2.2,2.78,.23,5.03,.6,6.87,1.13,2.11,.6,3.85,1.49,5.17,2.63,1.46,1.26,2.47,2.83,3.02,4.66,.45,1.49,.66,3.17,.66,5.14,0,6.53,0,13.06,0,19.58,0,1.96-.21,3.6-.66,5.02-.54,1.73-1.56,3.12-3.02,4.12-1.32,.91-3.05,1.49-5.16,1.73-1.85,.21-4.1,.2-6.87-.03-9.73-.8-19.46-1.53-29.2-2.2Zm-4.37-37.04c-2.26-.15-4.1,1.57-4.11,3.84,0,7.12,0,14.23,0,21.35,0,2.26,1.84,4.22,4.11,4.37,1.21,.08,2.41,.16,3.62,.24,.26,.02,.53,.05,.82,.07,9.69,.66,19.37,1.39,29.05,2.19,.19,.01,.37,.02,.56,.04,1.29,.11,2.59,.22,3.88,.32,2.26,.19,4.1-1.49,4.1-3.75,0-7.12,0-14.23,0-21.35,0-2.26-1.84-4.26-4.1-4.45-12.64-1.07-25.28-2.02-37.93-2.86Z"/>
          <path class="cls-1" d="M555.33,130.02v-36.77c-8.57-.94-17.15-1.83-25.73-2.67v-7.19c19.56,1.9,39.09,4.09,58.6,6.55v7.19c-8.56-1.08-17.13-2.11-25.7-3.08v36.77c-2.39-.27-4.78-.54-7.17-.8Z"/>
          <path class="cls-1" d="M379.56,118.27v-43.96c18.73,.45,37.45,1.15,56.16,2.11,0,2.4,0,4.79,0,7.19-16.31-.84-32.64-1.48-48.96-1.93v10.92c14.45,.4,28.9,.95,43.34,1.65,0,2.4,0,4.79,0,7.19-14.44-.7-28.89-1.25-43.34-1.65v11.47c16.33,.45,32.65,1.09,48.96,1.93,0,2.4,0,4.79,0,7.19-18.71-.96-37.43-1.66-56.16-2.11Z"/>
          <path class="cls-1" d="M317.36,117.72c-2.78,.02-5.04-.14-6.89-.49-2.11-.4-3.85-1.11-5.18-2.12-1.46-1.11-2.48-2.58-3.03-4.35-.45-1.45-.67-3.11-.66-5.07,0-6.48,0-12.95,0-19.43,0-4.2,1.09-7.37,3.25-9.42,2.16-2.04,5.69-3.03,11.12-3.07,13.87-.1,27.74-.05,41.61,.13v7.19c-14.86-.2-29.73-.23-44.6-.11-2.27,.02-4.11,1.88-4.11,4.14,0,6.82,0,13.65,0,20.47,0,.3,0,.6,0,.9,0,2.26,1.84,4.08,4.11,4.06,1.2-.01,2.39-.02,3.59-.03,.27,0,.55,0,.86,0,12.05-.08,24.1-.04,36.14,.09v-11.47c-7.81-.09-15.62-.13-23.43-.13,.02-2.4,.04-4.79,.05-7.19,10.19,0,20.38,.08,30.58,.23v25.85c-14.47-.21-28.95-.28-43.42-.19Z"/>
          <path class="cls-1" d="M239.24,119.63c-2.78,.12-5.03,.05-6.89-.23-2.11-.32-3.86-.97-5.18-1.93-1.46-1.06-2.48-2.48-3.02-4.23-.45-1.44-.66-3.09-.66-5.05v-31.67c2.4-.12,4.8-.24,7.2-.36,0,10.86,0,21.72,0,32.57,0,2.26,1.84,4.01,4.11,3.91,12.23-.57,24.47-1.03,36.71-1.38,2.27-.06,4.11-1.95,4.11-4.22,0-10.86,0-21.72,0-32.57,2.4-.06,4.8-.12,7.2-.18v31.67c0,1.96-.22,3.62-.66,5.1-.55,1.8-1.57,3.3-3.03,4.46-1.32,1.06-3.07,1.84-5.18,2.32-1.85,.42-4.11,.66-6.89,.75-9.27,.28-18.54,.63-27.81,1.04Z"/>
        </g>
        <path class="cls-1" d="M644.54,42.18c-107.08-18.46-212.58-27.12-314.22-27.12S123.19,23.72,16.11,42.18c-1.6,42.88-3.42,109.15-.36,165.4,6.82,125.38,34.45,222.71,86.97,306.28,52.36,83.33,133.44,154.98,227.6,197.53,94.16-42.55,175.24-114.2,227.6-197.53,52.52-83.58,80.16-180.9,86.97-306.28,3.06-56.24,1.24-122.51-.36-165.4Zm-11.7,164.74c-6.7,123.25-33.75,218.74-85.14,300.51-51.38,81.76-128.43,149.3-217.38,190.67-88.95-41.37-166-108.91-217.38-190.67C61.56,425.67,34.51,330.17,27.81,206.92c-2.19-40.26-2.19-90.87,.02-154.48,100.58-16.79,202.31-25.31,302.5-25.31s201.92,8.51,302.5,25.31c2.2,63.61,2.21,114.22,.02,154.48Z"/>
      </g>
    </g>
  </g>
</svg>