<svg width="21" height="21" viewBox="0 0 21 21" fill="none" xmlns="http://www.w3.org/2000/svg">
<rect width="21" height="21" rx="6" fill="white"/>
<path d="M10.5 17.6391C9.30538 17.6391 8.13539 17.2995 7.12646 16.6598C6.11754 16.0201 5.31128 15.1068 4.80173 14.0263C4.29217 12.9458 4.10032 11.7427 4.24855 10.5573C4.39678 9.37196 4.87898 8.25316 5.63891 7.33142C5.67405 7.2889 5.71721 7.25371 5.76595 7.22787C5.81468 7.20202 5.86803 7.18603 5.92294 7.18081C5.97785 7.17558 6.03326 7.18122 6.08599 7.19741C6.13872 7.21359 6.18775 7.24001 6.23027 7.27514C6.2728 7.31028 6.30799 7.35344 6.33383 7.40218C6.35967 7.45091 6.37566 7.50425 6.38089 7.55917C6.38612 7.61408 6.38047 7.66948 6.36429 7.72222C6.3481 7.77495 6.32169 7.82398 6.28656 7.8665C5.49748 8.82393 5.058 10.0216 5.04052 11.2621C5.02304 12.5027 5.42858 13.7122 6.19037 14.6915C6.95215 15.6708 8.02474 16.3614 9.23149 16.6497C10.4382 16.9379 11.7072 16.8066 12.8293 16.2773C13.9514 15.748 14.8598 14.8523 15.4049 13.7377C15.9499 12.6232 16.0991 11.3562 15.8279 10.1456C15.5567 8.93487 14.8813 7.85265 13.9128 7.07713C12.9444 6.30162 11.7407 5.87907 10.5 5.87906H7.97999C7.8686 5.87906 7.76177 5.83481 7.68301 5.75605C7.60424 5.67728 7.55999 5.57045 7.55999 5.45906C7.55999 5.34767 7.60424 5.24084 7.68301 5.16208C7.76177 5.08331 7.8686 5.03906 7.97999 5.03906H10.5C12.1709 5.03906 13.7733 5.70281 14.9548 6.88429C16.1362 8.06577 16.8 9.6682 16.8 11.3391C16.8 13.0099 16.1362 14.6124 14.9548 15.7938C13.7733 16.9753 12.1709 17.6391 10.5 17.6391Z" fill="#6B7A91"/>
<path d="M9.65998 7.55959C9.60479 7.55969 9.55012 7.54891 9.49909 7.52787C9.44807 7.50682 9.40169 7.47593 9.36262 7.43695L7.68262 5.75695C7.60375 5.67809 7.55945 5.57112 7.55945 5.45959C7.55945 5.34806 7.60375 5.2411 7.68262 5.16223C7.76148 5.08337 7.86845 5.03906 7.97998 5.03906C8.09151 5.03906 8.19847 5.08337 8.27734 5.16223L9.95734 6.84223C10.0162 6.90097 10.0564 6.97588 10.0726 7.05745C10.0889 7.13902 10.0806 7.22358 10.0487 7.30042C10.0169 7.37726 9.96292 7.44291 9.89371 7.48905C9.8245 7.53519 9.74316 7.55974 9.65998 7.55959Z" fill="#6B7A91"/>
<path d="M7.97999 5.87991C7.89681 5.88005 7.81546 5.8555 7.74625 5.80936C7.67705 5.76322 7.6231 5.69757 7.59125 5.62073C7.5594 5.5439 7.55108 5.45933 7.56735 5.37776C7.58361 5.29619 7.62374 5.22129 7.68263 5.16255L9.36263 3.48255C9.44149 3.40368 9.54846 3.35937 9.65999 3.35938C9.77152 3.35938 9.87848 3.40368 9.95735 3.48255C10.0362 3.56141 10.0805 3.66837 10.0805 3.77991C10.0805 3.89144 10.0362 3.9984 9.95735 4.07727L8.27735 5.75727C8.23827 5.79624 8.1919 5.82714 8.14087 5.84818C8.08985 5.86922 8.03518 5.88 7.97999 5.87991Z" fill="#6B7A91"/>
</svg>
