<svg width="25" height="25" viewBox="0 0 25 25" fill="none" xmlns="http://www.w3.org/2000/svg">
<path d="M17.0209 2.08398C20.5522 2.08398 22.9168 4.56315 22.9168 8.25065V16.7621C22.9168 20.4382 20.5522 22.9173 17.0209 22.9173H7.98969C4.45844 22.9173 2.08344 20.4382 2.08344 16.7621V8.25065C2.08344 4.56315 4.45844 2.08398 7.98969 2.08398H17.0209ZM16.8543 9.37565C16.5001 9.02148 15.9168 9.02148 15.5626 9.37565L11.2605 13.6777L9.4376 11.8548C9.08344 11.5007 8.5001 11.5007 8.14594 11.8548C7.79177 12.209 7.79177 12.7819 8.14594 13.1465L10.6251 15.6152C10.8022 15.7923 11.0314 15.8757 11.2605 15.8757C11.5001 15.8757 11.7293 15.7923 11.9064 15.6152L16.8543 10.6673C17.2084 10.3132 17.2084 9.74023 16.8543 9.37565Z" fill="white"/>
</svg>
